G04 #@! TF.FileFunction,Copper,L1,Top,Signal*
%FSLAX46Y46*%
G04 Gerber Fmt 4.6, Leading zero omitted, Abs format (unit mm)*
G04 Created by KiCad (PCBNEW 4.0.5) date 12/30/18 13:53:27*
%MOMM*%
%LPD*%
G01*
G04 APERTURE LIST*
%ADD10C,0.150000*%
%ADD11C,1.905000*%
%ADD12R,2.032000X2.032000*%
%ADD13C,2.032000*%
%ADD14C,2.540000*%
%ADD15R,2.286000X1.574800*%
%ADD16O,2.286000X1.574800*%
%ADD17O,2.032000X2.032000*%
%ADD18R,2.100580X2.100580*%
%ADD19C,2.199640*%
%ADD20R,1.500000X1.500000*%
%ADD21C,1.500000*%
%ADD22R,2.499360X2.499360*%
%ADD23C,2.499360*%
%ADD24R,1.600000X2.800000*%
%ADD25O,1.600000X2.800000*%
%ADD26C,0.889000*%
%ADD27C,1.270000*%
%ADD28C,0.508000*%
%ADD29C,0.254000*%
G04 APERTURE END LIST*
D10*
D11*
X12687000Y30857500D03*
X12687000Y25777500D03*
X12687000Y20697500D03*
X12687000Y15617500D03*
D12*
X36817000Y51812500D03*
D13*
X36817000Y49272500D03*
D11*
X36817000Y38477500D03*
X36817000Y43557500D03*
D12*
X11417000Y96897500D03*
D13*
X11417000Y94357500D03*
D12*
X26022000Y81657500D03*
D13*
X26022000Y84197500D03*
D12*
X14592000Y51177500D03*
D13*
X14592000Y53717500D03*
D14*
X29832000Y1647500D03*
X39230000Y1647500D03*
X37452000Y22602500D03*
X46850000Y22602500D03*
X24752000Y77212500D03*
X15354000Y77212500D03*
X24752000Y74037500D03*
X15354000Y74037500D03*
D11*
X29197000Y77847500D03*
X30197000Y72747500D03*
D15*
X18402000Y46097500D03*
D16*
X18402000Y43557500D03*
X18402000Y41017500D03*
X18402000Y38477500D03*
X18402000Y35937500D03*
X18402000Y33397500D03*
X18402000Y30857500D03*
X18402000Y28317500D03*
X18402000Y25777500D03*
X18402000Y23237500D03*
X18402000Y20697500D03*
X18402000Y18157500D03*
X18402000Y15617500D03*
X18402000Y13077500D03*
X18402000Y10537500D03*
X33007000Y10537500D03*
X33007000Y13077500D03*
X33007000Y15617500D03*
X33007000Y18157500D03*
X33007000Y20697500D03*
X33007000Y23237500D03*
X33007000Y25777500D03*
X33007000Y28317500D03*
X33007000Y30857500D03*
X33007000Y33397500D03*
X33007000Y35937500D03*
X33007000Y38477500D03*
X33007000Y41017500D03*
X33007000Y43557500D03*
X33007000Y46097500D03*
D12*
X29832000Y15617500D03*
X29832000Y13458500D03*
D13*
X26657000Y93722500D03*
X26657000Y88642500D03*
D12*
X21577000Y20697500D03*
D17*
X21577000Y23237500D03*
D18*
X10782000Y2282500D03*
D19*
X13322000Y2282500D03*
X15862000Y2282500D03*
X18402000Y2282500D03*
X20942000Y2282500D03*
X23482000Y2282500D03*
D12*
X38722000Y87372500D03*
D13*
X41262000Y87372500D03*
X43802000Y87372500D03*
X46342000Y87372500D03*
D20*
X39532000Y89483500D03*
D21*
X41532000Y89483500D03*
X43532000Y89483500D03*
X45532000Y89483500D03*
D12*
X38722000Y78482500D03*
D13*
X41262000Y78482500D03*
X43802000Y78482500D03*
X46342000Y78482500D03*
D20*
X39532000Y80593500D03*
D21*
X41532000Y80593500D03*
X43532000Y80593500D03*
X45532000Y80593500D03*
D12*
X38722000Y69592500D03*
D13*
X41262000Y69592500D03*
X43802000Y69592500D03*
X46342000Y69592500D03*
D20*
X39532000Y71703500D03*
D21*
X41532000Y71703500D03*
X43532000Y71703500D03*
X45532000Y71703500D03*
D13*
X13957000Y59432500D03*
X13957000Y67052500D03*
X25387000Y41652500D03*
X25387000Y34032500D03*
X27927000Y34032500D03*
X27927000Y41652500D03*
X32372000Y4822500D03*
X39992000Y4822500D03*
X39992000Y25777500D03*
X47612000Y25777500D03*
X39992000Y7362500D03*
X32372000Y7362500D03*
X47612000Y28317500D03*
X39992000Y28317500D03*
D15*
X20307000Y82292500D03*
D16*
X20307000Y84832500D03*
X20307000Y87372500D03*
X20307000Y89912500D03*
X12687000Y89912500D03*
X12687000Y87372500D03*
X12687000Y84832500D03*
X12687000Y82292500D03*
D12*
X46342000Y44827500D03*
D13*
X46342000Y49907500D03*
X46342000Y54987500D03*
X46342000Y60067500D03*
D20*
X44231000Y49447500D03*
D21*
X44231000Y51447500D03*
X44231000Y53447500D03*
X44231000Y55447500D03*
D22*
X6337000Y56257500D03*
D23*
X6337000Y61337500D03*
D22*
X6337000Y46097500D03*
D23*
X6337000Y51177500D03*
D22*
X6337000Y35937500D03*
D23*
X6337000Y41017500D03*
D22*
X6337000Y25777500D03*
D23*
X6337000Y30857500D03*
D22*
X6337000Y15617500D03*
D23*
X6337000Y20697500D03*
D22*
X6337000Y83562500D03*
D23*
X6337000Y88642500D03*
D22*
X6337000Y70862500D03*
D23*
X6337000Y75942500D03*
D22*
X43802000Y12442500D03*
D23*
X43802000Y17522500D03*
D22*
X43802000Y33397500D03*
D23*
X43802000Y38477500D03*
D24*
X22387000Y60702500D03*
D25*
X28387000Y60702500D03*
D14*
X15227000Y97532500D03*
X24625000Y97532500D03*
D26*
X21069000Y35937500D03*
X30213000Y55749500D03*
X31229000Y57273500D03*
X37452000Y66036500D03*
X32626000Y66036500D03*
X37452000Y75180500D03*
X33388000Y75180500D03*
D27*
X30197000Y72747500D02*
X30197000Y71608500D01*
X22387000Y63798500D02*
X22387000Y60702500D01*
X30197000Y71608500D02*
X22387000Y63798500D01*
D28*
X13322000Y2282500D02*
X13322000Y3679500D01*
X21069000Y29460500D02*
X21069000Y35937500D01*
X24371000Y26158500D02*
X21069000Y29460500D01*
X24371000Y11045500D02*
X24371000Y26158500D01*
X19926000Y6600500D02*
X24371000Y11045500D01*
X16243000Y6600500D02*
X19926000Y6600500D01*
X13322000Y3679500D02*
X16243000Y6600500D01*
X36817000Y38477500D02*
X37706000Y38477500D01*
X37706000Y38477500D02*
X39738000Y40509500D01*
X37960000Y51812500D02*
X36817000Y51812500D01*
X39738000Y50034500D02*
X37960000Y51812500D01*
X39738000Y40509500D02*
X39738000Y50034500D01*
D27*
X6337000Y88642500D02*
X8750000Y91055500D01*
X8750000Y91055500D02*
X8750000Y96008500D01*
X9639000Y96897500D02*
X11417000Y96897500D01*
X8750000Y96008500D02*
X9639000Y96897500D01*
D28*
X11417000Y96897500D02*
X9893000Y96897500D01*
X8750000Y95754500D02*
X8750000Y91055500D01*
X9893000Y96897500D02*
X8750000Y95754500D01*
X14592000Y51177500D02*
X14592000Y21967500D01*
X14592000Y21967500D02*
X18402000Y18157500D01*
X18402000Y18157500D02*
X17767000Y18157500D01*
X33007000Y20697500D02*
X33515000Y20697500D01*
X33515000Y20697500D02*
X35039000Y19173500D01*
X35039000Y19173500D02*
X35039000Y8505500D01*
X35039000Y8505500D02*
X33896000Y7362500D01*
X33896000Y7362500D02*
X32372000Y7362500D01*
X18402000Y46097500D02*
X22847000Y46097500D01*
X27165000Y52701500D02*
X30213000Y55749500D01*
X27165000Y50415500D02*
X27165000Y52701500D01*
X22847000Y46097500D02*
X27165000Y50415500D01*
X18402000Y43557500D02*
X17005000Y43557500D01*
X17005000Y43557500D02*
X16624000Y43938500D01*
X16624000Y43938500D02*
X16624000Y47621500D01*
X16624000Y47621500D02*
X17132000Y48129500D01*
X17132000Y48129500D02*
X23355000Y48129500D01*
X23355000Y48129500D02*
X26276000Y51050500D01*
X26276000Y51050500D02*
X26276000Y53590500D01*
X26276000Y53590500D02*
X29959000Y57273500D01*
X29959000Y57273500D02*
X31229000Y57273500D01*
X46596000Y67306500D02*
X46596000Y69338500D01*
X45326000Y66036500D02*
X46596000Y67306500D01*
X37452000Y66036500D02*
X45326000Y66036500D01*
X46596000Y69338500D02*
X46342000Y69592500D01*
X33007000Y23237500D02*
X29832000Y23237500D01*
X33134000Y65528500D02*
X32626000Y66036500D01*
X33134000Y57146500D02*
X33134000Y65528500D01*
X28181000Y52193500D02*
X33134000Y57146500D01*
X28181000Y49780500D02*
X28181000Y52193500D01*
X22720000Y44319500D02*
X28181000Y49780500D01*
X22720000Y30349500D02*
X22720000Y44319500D01*
X29832000Y23237500D02*
X22720000Y30349500D01*
X27419000Y47621500D02*
X29070000Y49272500D01*
X28689000Y25777500D02*
X23609000Y30857500D01*
X23609000Y30857500D02*
X23609000Y43811500D01*
X27228500Y47431000D02*
X27419000Y47621500D01*
X23609000Y43811500D02*
X27228500Y47431000D01*
X33007000Y25777500D02*
X28689000Y25777500D01*
X46342000Y77085500D02*
X46342000Y78482500D01*
X44437000Y75180500D02*
X46342000Y77085500D01*
X37452000Y75180500D02*
X44437000Y75180500D01*
X34150000Y74418500D02*
X33388000Y75180500D01*
X34150000Y56765500D02*
X34150000Y74418500D01*
X29070000Y51685500D02*
X34150000Y56765500D01*
X29070000Y49272500D02*
X29070000Y51685500D01*
X29959000Y49653500D02*
X29959000Y51050500D01*
X35166000Y56257500D02*
X35166000Y73275500D01*
X29959000Y51050500D02*
X35166000Y56257500D01*
X33007000Y28317500D02*
X31610000Y28317500D01*
X43802000Y85975500D02*
X43802000Y87372500D01*
X42151000Y84324500D02*
X43802000Y85975500D01*
X36944000Y84324500D02*
X42151000Y84324500D01*
X35166000Y82546500D02*
X36944000Y84324500D01*
X35166000Y73275500D02*
X35166000Y82546500D01*
X29959000Y29968500D02*
X29959000Y49653500D01*
X31610000Y28317500D02*
X29959000Y29968500D01*
X30848000Y45843500D02*
X30848000Y50542500D01*
X36055000Y55749500D02*
X36055000Y72640500D01*
X30848000Y50542500D02*
X36055000Y55749500D01*
X33007000Y30857500D02*
X31356000Y30857500D01*
X46342000Y85213500D02*
X46342000Y87372500D01*
X43929000Y82800500D02*
X46342000Y85213500D01*
X37960000Y82800500D02*
X43929000Y82800500D01*
X36055000Y80895500D02*
X37960000Y82800500D01*
X36055000Y72640500D02*
X36055000Y80895500D01*
X30848000Y31365500D02*
X30848000Y45843500D01*
X31356000Y30857500D02*
X30848000Y31365500D01*
D27*
X15989000Y97532500D02*
X15989000Y86737500D01*
X15989000Y86737500D02*
X14084000Y84832500D01*
D28*
X15989000Y87372500D02*
X15989000Y93468500D01*
X15989000Y93976500D02*
X15989000Y97532500D01*
D27*
X16243000Y93722500D02*
X15989000Y93976500D01*
D28*
X16243000Y93722500D02*
X15989000Y93468500D01*
X15989000Y93468500D02*
X15989000Y93976500D01*
D27*
X14084000Y84832500D02*
X12687000Y84832500D01*
X26657000Y93722500D02*
X16243000Y93722500D01*
D28*
X12687000Y84832500D02*
X13449000Y84832500D01*
X13449000Y84832500D02*
X15989000Y87372500D01*
D29*
G36*
X14149314Y99148422D02*
X13612961Y98613005D01*
X13322332Y97913090D01*
X13321670Y97155235D01*
X13611078Y96454814D01*
X14146495Y95918461D01*
X14719000Y95680737D01*
X14719000Y93976505D01*
X14718999Y93976500D01*
X14719000Y93976495D01*
X14719000Y87359736D01*
X14442244Y87082980D01*
X14499833Y87372500D01*
X14391559Y87916829D01*
X14083222Y88378289D01*
X13687801Y88642500D01*
X14083222Y88906711D01*
X14391559Y89368171D01*
X14499833Y89912500D01*
X14391559Y90456829D01*
X14083222Y90918289D01*
X13621762Y91226626D01*
X13077433Y91334900D01*
X12296567Y91334900D01*
X11752238Y91226626D01*
X11290778Y90918289D01*
X10982441Y90456829D01*
X10874167Y89912500D01*
X10982441Y89368171D01*
X11290778Y88906711D01*
X11686199Y88642500D01*
X11290778Y88378289D01*
X10982441Y87916829D01*
X10874167Y87372500D01*
X10982441Y86828171D01*
X11290778Y86366711D01*
X11686199Y86102500D01*
X11290778Y85838289D01*
X10982441Y85376829D01*
X10874167Y84832500D01*
X10982441Y84288171D01*
X11290778Y83826711D01*
X11686199Y83562500D01*
X11290778Y83298289D01*
X10982441Y82836829D01*
X10874167Y82292500D01*
X10982441Y81748171D01*
X11290778Y81286711D01*
X11752238Y80978374D01*
X12296567Y80870100D01*
X13077433Y80870100D01*
X13621762Y80978374D01*
X14083222Y81286711D01*
X14391559Y81748171D01*
X14499833Y82292500D01*
X14391559Y82836829D01*
X14229145Y83079900D01*
X18516560Y83079900D01*
X18516560Y81505100D01*
X18560838Y81269783D01*
X18699910Y81053659D01*
X18912110Y80908669D01*
X19164000Y80857660D01*
X21450000Y80857660D01*
X21685317Y80901938D01*
X21901441Y81041010D01*
X22046431Y81253210D01*
X22097440Y81505100D01*
X22097440Y82673500D01*
X24358560Y82673500D01*
X24358560Y80641500D01*
X24402838Y80406183D01*
X24541910Y80190059D01*
X24754110Y80045069D01*
X25006000Y79994060D01*
X27038000Y79994060D01*
X27273317Y80038338D01*
X27489441Y80177410D01*
X27634431Y80389610D01*
X27685440Y80641500D01*
X27685440Y82673500D01*
X27641162Y82908817D01*
X27502090Y83124941D01*
X27306943Y83258279D01*
X27454622Y83313620D01*
X27683816Y83929142D01*
X27660014Y84585519D01*
X27454622Y85081380D01*
X27186107Y85182002D01*
X26201605Y84197500D01*
X26215748Y84183357D01*
X26036143Y84003752D01*
X26022000Y84017895D01*
X26007858Y84003752D01*
X25828253Y84183357D01*
X25842395Y84197500D01*
X24857893Y85182002D01*
X24589378Y85081380D01*
X24360184Y84465858D01*
X24383986Y83809481D01*
X24589378Y83313620D01*
X24740254Y83257081D01*
X24554559Y83137590D01*
X24409569Y82925390D01*
X24358560Y82673500D01*
X22097440Y82673500D01*
X22097440Y83079900D01*
X22053162Y83315217D01*
X21914090Y83531341D01*
X21701890Y83676331D01*
X21508610Y83715471D01*
X21758191Y83916514D01*
X22025327Y84405504D01*
X22042010Y84485440D01*
X21919852Y84705500D01*
X20434000Y84705500D01*
X20434000Y84685500D01*
X20180000Y84685500D01*
X20180000Y84705500D01*
X18694148Y84705500D01*
X18571990Y84485440D01*
X18588673Y84405504D01*
X18855809Y83916514D01*
X19104544Y83716153D01*
X18928683Y83683062D01*
X18712559Y83543990D01*
X18567569Y83331790D01*
X18516560Y83079900D01*
X14229145Y83079900D01*
X14083222Y83298289D01*
X13687801Y83562500D01*
X14083995Y83562500D01*
X14084000Y83562499D01*
X14570008Y83659173D01*
X14982026Y83934474D01*
X16887023Y85839472D01*
X16887026Y85839474D01*
X17162327Y86251492D01*
X17175100Y86315706D01*
X17259001Y86737500D01*
X17259000Y86737505D01*
X17259000Y87025440D01*
X18571990Y87025440D01*
X18588673Y86945504D01*
X18855809Y86456514D01*
X19289738Y86106975D01*
X19304990Y86102500D01*
X19289738Y86098025D01*
X18855809Y85748486D01*
X18588673Y85259496D01*
X18571990Y85179560D01*
X18694148Y84959500D01*
X20180000Y84959500D01*
X20180000Y87245500D01*
X20434000Y87245500D01*
X20434000Y84959500D01*
X21919852Y84959500D01*
X22042010Y85179560D01*
X22025327Y85259496D01*
X21969544Y85361607D01*
X25037498Y85361607D01*
X26022000Y84377105D01*
X27006502Y85361607D01*
X26905880Y85630122D01*
X26290358Y85859316D01*
X25633981Y85835514D01*
X25138120Y85630122D01*
X25037498Y85361607D01*
X21969544Y85361607D01*
X21758191Y85748486D01*
X21324262Y86098025D01*
X21309010Y86102500D01*
X21324262Y86106975D01*
X21758191Y86456514D01*
X22025327Y86945504D01*
X22042010Y87025440D01*
X21919852Y87245500D01*
X20434000Y87245500D01*
X20180000Y87245500D01*
X18694148Y87245500D01*
X18571990Y87025440D01*
X17259000Y87025440D01*
X17259000Y89565440D01*
X18571990Y89565440D01*
X18588673Y89485504D01*
X18855809Y88996514D01*
X19289738Y88646975D01*
X19304990Y88642500D01*
X19289738Y88638025D01*
X18855809Y88288486D01*
X18588673Y87799496D01*
X18571990Y87719560D01*
X18694148Y87499500D01*
X20180000Y87499500D01*
X20180000Y89785500D01*
X20434000Y89785500D01*
X20434000Y87499500D01*
X21919852Y87499500D01*
X22042010Y87719560D01*
X22025327Y87799496D01*
X21758191Y88288486D01*
X21724610Y88315537D01*
X25005714Y88315537D01*
X25256534Y87708505D01*
X25720563Y87243666D01*
X26327155Y86991787D01*
X26983963Y86991214D01*
X27215178Y87086750D01*
X37071000Y87086750D01*
X37071000Y86230190D01*
X37167673Y85996801D01*
X37346302Y85818173D01*
X37579691Y85721500D01*
X38436250Y85721500D01*
X38595000Y85880250D01*
X38595000Y87245500D01*
X37229750Y87245500D01*
X37071000Y87086750D01*
X27215178Y87086750D01*
X27590995Y87242034D01*
X28055834Y87706063D01*
X28307713Y88312655D01*
X28308286Y88969463D01*
X28057466Y89576495D01*
X27593437Y90041334D01*
X26986845Y90293213D01*
X26330037Y90293786D01*
X25723005Y90042966D01*
X25258166Y89578937D01*
X25006287Y88972345D01*
X25005714Y88315537D01*
X21724610Y88315537D01*
X21324262Y88638025D01*
X21309010Y88642500D01*
X21324262Y88646975D01*
X21758191Y88996514D01*
X22025327Y89485504D01*
X22042010Y89565440D01*
X21919852Y89785500D01*
X20434000Y89785500D01*
X20180000Y89785500D01*
X18694148Y89785500D01*
X18571990Y89565440D01*
X17259000Y89565440D01*
X17259000Y90259560D01*
X18571990Y90259560D01*
X18694148Y90039500D01*
X20180000Y90039500D01*
X20180000Y91334900D01*
X20434000Y91334900D01*
X20434000Y90039500D01*
X21919852Y90039500D01*
X22042010Y90259560D01*
X22025327Y90339496D01*
X22014230Y90359810D01*
X38147000Y90359810D01*
X38147000Y89769250D01*
X38305750Y89610500D01*
X39405000Y89610500D01*
X39405000Y90709750D01*
X39246250Y90868500D01*
X38655691Y90868500D01*
X38422302Y90771827D01*
X38243673Y90593199D01*
X38147000Y90359810D01*
X22014230Y90359810D01*
X21758191Y90828486D01*
X21324262Y91178025D01*
X20789600Y91334900D01*
X20434000Y91334900D01*
X20180000Y91334900D01*
X19824400Y91334900D01*
X19289738Y91178025D01*
X18855809Y90828486D01*
X18588673Y90339496D01*
X18571990Y90259560D01*
X17259000Y90259560D01*
X17259000Y92452500D01*
X25591953Y92452500D01*
X25720563Y92323666D01*
X26327155Y92071787D01*
X26983963Y92071214D01*
X27590995Y92322034D01*
X28055834Y92786063D01*
X28307713Y93392655D01*
X28308286Y94049463D01*
X28057466Y94656495D01*
X27975420Y94738685D01*
X42851630Y94738685D01*
X43175980Y93953700D01*
X43776041Y93352591D01*
X44560459Y93026872D01*
X45409815Y93026130D01*
X46194800Y93350480D01*
X46795909Y93950541D01*
X47121628Y94734959D01*
X47122370Y95584315D01*
X46798020Y96369300D01*
X46197959Y96970409D01*
X45413541Y97296128D01*
X44564185Y97296870D01*
X43779200Y96972520D01*
X43178091Y96372459D01*
X42852372Y95588041D01*
X42851630Y94738685D01*
X27975420Y94738685D01*
X27593437Y95121334D01*
X26986845Y95373213D01*
X26330037Y95373786D01*
X25723005Y95122966D01*
X25592311Y94992500D01*
X17259000Y94992500D01*
X17259000Y96184723D01*
X23456828Y96184723D01*
X23588520Y95889843D01*
X24296036Y95618239D01*
X25053632Y95638064D01*
X25661480Y95889843D01*
X25793172Y96184723D01*
X24625000Y97352895D01*
X23456828Y96184723D01*
X17259000Y96184723D01*
X17259000Y97532500D01*
X17193565Y97861464D01*
X22710739Y97861464D01*
X22730564Y97103868D01*
X22982343Y96496020D01*
X23277223Y96364328D01*
X24445395Y97532500D01*
X24804605Y97532500D01*
X25972777Y96364328D01*
X26267657Y96496020D01*
X26539261Y97203536D01*
X26519436Y97961132D01*
X26267657Y98568980D01*
X25972777Y98700672D01*
X24804605Y97532500D01*
X24445395Y97532500D01*
X23277223Y98700672D01*
X22982343Y98568980D01*
X22710739Y97861464D01*
X17193565Y97861464D01*
X17162327Y98018508D01*
X16965980Y98312363D01*
X16842922Y98610186D01*
X16307505Y99146539D01*
X16240167Y99174500D01*
X23588227Y99174500D01*
X23456828Y98880277D01*
X24625000Y97712105D01*
X25793172Y98880277D01*
X25661773Y99174500D01*
X44918697Y99174500D01*
X46591323Y98841794D01*
X47940382Y97940382D01*
X48841794Y96591322D01*
X49174500Y94918697D01*
X49174500Y28859342D01*
X49012466Y29251495D01*
X48548437Y29716334D01*
X47941845Y29968213D01*
X47285037Y29968786D01*
X46678005Y29717966D01*
X46213166Y29253937D01*
X45961287Y28647345D01*
X45960714Y27990537D01*
X46211534Y27383505D01*
X46634366Y26959935D01*
X46627498Y26941607D01*
X47612000Y25957105D01*
X48596502Y26941607D01*
X48589453Y26960417D01*
X49010834Y27381063D01*
X49174500Y27775215D01*
X49174500Y26347826D01*
X49044622Y26661380D01*
X48776107Y26762002D01*
X47791605Y25777500D01*
X48776107Y24792998D01*
X49044622Y24893620D01*
X49174500Y25242420D01*
X49174500Y5081303D01*
X48841794Y3408678D01*
X47940382Y2059618D01*
X46591323Y1158206D01*
X44918697Y825500D01*
X40954992Y825500D01*
X41144261Y1318536D01*
X41124436Y2076132D01*
X40872657Y2683980D01*
X40577777Y2815672D01*
X39409605Y1647500D01*
X39423748Y1633357D01*
X39244143Y1453752D01*
X39230000Y1467895D01*
X39215858Y1453752D01*
X39036253Y1633357D01*
X39050395Y1647500D01*
X37882223Y2815672D01*
X37587343Y2683980D01*
X37315739Y1976464D01*
X37335564Y1218868D01*
X37498502Y825500D01*
X31553379Y825500D01*
X31736668Y1266910D01*
X31737330Y2024765D01*
X31447922Y2725186D01*
X31178303Y2995277D01*
X38061828Y2995277D01*
X39230000Y1827105D01*
X40398172Y2995277D01*
X40314730Y3182118D01*
X40380019Y3184486D01*
X40875880Y3389878D01*
X40976502Y3658393D01*
X39992000Y4642895D01*
X39007498Y3658393D01*
X39048713Y3548409D01*
X38801368Y3541936D01*
X38193520Y3290157D01*
X38061828Y2995277D01*
X31178303Y2995277D01*
X30912505Y3261539D01*
X30212590Y3552168D01*
X29454735Y3552830D01*
X28754314Y3263422D01*
X28217961Y2728005D01*
X27927332Y2028090D01*
X27926670Y1270235D01*
X28110431Y825500D01*
X24478004Y825500D01*
X24951851Y1298520D01*
X25216518Y1935909D01*
X25217120Y2626063D01*
X24953566Y3263913D01*
X24465980Y3752351D01*
X23828591Y4017018D01*
X23138437Y4017620D01*
X22500587Y3754066D01*
X22211924Y3465907D01*
X21925980Y3752351D01*
X21288591Y4017018D01*
X20598437Y4017620D01*
X19960587Y3754066D01*
X19671924Y3465907D01*
X19385980Y3752351D01*
X18748591Y4017018D01*
X18058437Y4017620D01*
X17420587Y3754066D01*
X17131924Y3465907D01*
X16845980Y3752351D01*
X16208591Y4017018D01*
X15518437Y4017620D01*
X14880587Y3754066D01*
X14591924Y3465907D01*
X14478882Y3579146D01*
X16611236Y5711500D01*
X19926000Y5711500D01*
X20266206Y5779171D01*
X20554618Y5971882D01*
X24999618Y10416882D01*
X25192329Y10705294D01*
X25260000Y11045500D01*
X25260000Y26158500D01*
X25192329Y26498706D01*
X24999618Y26787118D01*
X21958000Y29828736D01*
X21958000Y29920502D01*
X22003965Y29851711D01*
X22091382Y29720882D01*
X29203382Y22608882D01*
X29491794Y22416171D01*
X29832000Y22348500D01*
X31532742Y22348500D01*
X31610778Y22231711D01*
X32006199Y21967500D01*
X31610778Y21703289D01*
X31302441Y21241829D01*
X31194167Y20697500D01*
X31302441Y20153171D01*
X31610778Y19691711D01*
X32006199Y19427500D01*
X31610778Y19163289D01*
X31302441Y18701829D01*
X31194167Y18157500D01*
X31302441Y17613171D01*
X31610778Y17151711D01*
X32006199Y16887500D01*
X31610778Y16623289D01*
X31495440Y16450673D01*
X31495440Y16633500D01*
X31451162Y16868817D01*
X31312090Y17084941D01*
X31099890Y17229931D01*
X30848000Y17280940D01*
X28816000Y17280940D01*
X28580683Y17236662D01*
X28364559Y17097590D01*
X28219569Y16885390D01*
X28168560Y16633500D01*
X28168560Y14601500D01*
X28180947Y14535669D01*
X28168560Y14474500D01*
X28168560Y12442500D01*
X28212838Y12207183D01*
X28351910Y11991059D01*
X28564110Y11846069D01*
X28816000Y11795060D01*
X30848000Y11795060D01*
X31083317Y11839338D01*
X31299441Y11978410D01*
X31444431Y12190610D01*
X31464643Y12290418D01*
X31610778Y12071711D01*
X32006199Y11807500D01*
X31610778Y11543289D01*
X31302441Y11081829D01*
X31194167Y10537500D01*
X31302441Y9993171D01*
X31610778Y9531711D01*
X32072238Y9223374D01*
X32616567Y9115100D01*
X33397433Y9115100D01*
X33941762Y9223374D01*
X34150000Y9362514D01*
X34150000Y8873736D01*
X33672700Y8396436D01*
X33308437Y8761334D01*
X32701845Y9013213D01*
X32045037Y9013786D01*
X31438005Y8762966D01*
X30973166Y8298937D01*
X30721287Y7692345D01*
X30720714Y7035537D01*
X30971534Y6428505D01*
X31307132Y6092321D01*
X30973166Y5758937D01*
X30721287Y5152345D01*
X30720714Y4495537D01*
X30971534Y3888505D01*
X31435563Y3423666D01*
X32042155Y3171787D01*
X32698963Y3171214D01*
X33305995Y3422034D01*
X33770834Y3886063D01*
X34022713Y4492655D01*
X34023234Y5090858D01*
X38330184Y5090858D01*
X38353986Y4434481D01*
X38559378Y3938620D01*
X38827893Y3837998D01*
X39812395Y4822500D01*
X40171605Y4822500D01*
X41156107Y3837998D01*
X41424622Y3938620D01*
X41653816Y4554142D01*
X41647124Y4738685D01*
X42851630Y4738685D01*
X43175980Y3953700D01*
X43776041Y3352591D01*
X44560459Y3026872D01*
X45409815Y3026130D01*
X46194800Y3350480D01*
X46795909Y3950541D01*
X47121628Y4734959D01*
X47122370Y5584315D01*
X46798020Y6369300D01*
X46197959Y6970409D01*
X45413541Y7296128D01*
X44564185Y7296870D01*
X43779200Y6972520D01*
X43178091Y6372459D01*
X42852372Y5588041D01*
X42851630Y4738685D01*
X41647124Y4738685D01*
X41630014Y5210519D01*
X41424622Y5706380D01*
X41156107Y5807002D01*
X40171605Y4822500D01*
X39812395Y4822500D01*
X38827893Y5807002D01*
X38559378Y5706380D01*
X38330184Y5090858D01*
X34023234Y5090858D01*
X34023286Y5149463D01*
X33772466Y5756495D01*
X33436868Y6092679D01*
X33770834Y6426063D01*
X33790532Y6473500D01*
X33896000Y6473500D01*
X34236206Y6541171D01*
X34524618Y6733882D01*
X34826273Y7035537D01*
X38340714Y7035537D01*
X38591534Y6428505D01*
X39014366Y6004935D01*
X39007498Y5986607D01*
X39992000Y5002105D01*
X40976502Y5986607D01*
X40969453Y6005417D01*
X41390834Y6426063D01*
X41642713Y7032655D01*
X41643286Y7689463D01*
X41392466Y8296495D01*
X40928437Y8761334D01*
X40321845Y9013213D01*
X39665037Y9013786D01*
X39058005Y8762966D01*
X38593166Y8298937D01*
X38341287Y7692345D01*
X38340714Y7035537D01*
X34826273Y7035537D01*
X35667618Y7876882D01*
X35743948Y7991118D01*
X35860329Y8165294D01*
X35928000Y8505500D01*
X35928000Y12156750D01*
X41917320Y12156750D01*
X41917320Y11066511D01*
X42013993Y10833122D01*
X42192621Y10654493D01*
X42426010Y10557820D01*
X43516250Y10557820D01*
X43675000Y10716570D01*
X43675000Y12315500D01*
X43929000Y12315500D01*
X43929000Y10716570D01*
X44087750Y10557820D01*
X45177990Y10557820D01*
X45411379Y10654493D01*
X45590007Y10833122D01*
X45686680Y11066511D01*
X45686680Y12156750D01*
X45527930Y12315500D01*
X43929000Y12315500D01*
X43675000Y12315500D01*
X42076070Y12315500D01*
X41917320Y12156750D01*
X35928000Y12156750D01*
X35928000Y13818489D01*
X41917320Y13818489D01*
X41917320Y12728250D01*
X42076070Y12569500D01*
X43675000Y12569500D01*
X43675000Y14168430D01*
X43929000Y14168430D01*
X43929000Y12569500D01*
X45527930Y12569500D01*
X45686680Y12728250D01*
X45686680Y13818489D01*
X45590007Y14051878D01*
X45411379Y14230507D01*
X45177990Y14327180D01*
X44087750Y14327180D01*
X43929000Y14168430D01*
X43675000Y14168430D01*
X43516250Y14327180D01*
X42426010Y14327180D01*
X42192621Y14230507D01*
X42013993Y14051878D01*
X41917320Y13818489D01*
X35928000Y13818489D01*
X35928000Y17149259D01*
X41916994Y17149259D01*
X42203314Y16456309D01*
X42733021Y15925678D01*
X43425469Y15638148D01*
X44175241Y15637494D01*
X44868191Y15923814D01*
X45398822Y16453521D01*
X45686352Y17145969D01*
X45687006Y17895741D01*
X45400686Y18588691D01*
X44870979Y19119322D01*
X44178531Y19406852D01*
X43428759Y19407506D01*
X42735809Y19121186D01*
X42205178Y18591479D01*
X41917648Y17899031D01*
X41916994Y17149259D01*
X35928000Y17149259D01*
X35928000Y19173500D01*
X35860329Y19513706D01*
X35667618Y19802118D01*
X34811936Y20657800D01*
X34819833Y20697500D01*
X34711559Y21241829D01*
X34403222Y21703289D01*
X34007801Y21967500D01*
X34393529Y22225235D01*
X35546670Y22225235D01*
X35836078Y21524814D01*
X36371495Y20988461D01*
X37071410Y20697832D01*
X37829265Y20697170D01*
X38529686Y20986578D01*
X38798299Y21254723D01*
X45681828Y21254723D01*
X45813520Y20959843D01*
X46521036Y20688239D01*
X47278632Y20708064D01*
X47886480Y20959843D01*
X48018172Y21254723D01*
X46850000Y22422895D01*
X45681828Y21254723D01*
X38798299Y21254723D01*
X39066039Y21521995D01*
X39356668Y22221910D01*
X39357287Y22931464D01*
X44935739Y22931464D01*
X44955564Y22173868D01*
X45207343Y21566020D01*
X45502223Y21434328D01*
X46670395Y22602500D01*
X47029605Y22602500D01*
X48197777Y21434328D01*
X48492657Y21566020D01*
X48764261Y22273536D01*
X48744436Y23031132D01*
X48492657Y23638980D01*
X48197777Y23770672D01*
X47029605Y22602500D01*
X46670395Y22602500D01*
X45502223Y23770672D01*
X45207343Y23638980D01*
X44935739Y22931464D01*
X39357287Y22931464D01*
X39357330Y22979765D01*
X39067922Y23680186D01*
X38798303Y23950277D01*
X45681828Y23950277D01*
X46850000Y22782105D01*
X48018172Y23950277D01*
X47934730Y24137118D01*
X48000019Y24139486D01*
X48495880Y24344878D01*
X48596502Y24613393D01*
X47612000Y25597895D01*
X46627498Y24613393D01*
X46668713Y24503409D01*
X46421368Y24496936D01*
X45813520Y24245157D01*
X45681828Y23950277D01*
X38798303Y23950277D01*
X38532505Y24216539D01*
X37832590Y24507168D01*
X37074735Y24507830D01*
X36374314Y24218422D01*
X35837961Y23683005D01*
X35547332Y22983090D01*
X35546670Y22225235D01*
X34393529Y22225235D01*
X34403222Y22231711D01*
X34711559Y22693171D01*
X34819833Y23237500D01*
X34711559Y23781829D01*
X34403222Y24243289D01*
X34007801Y24507500D01*
X34403222Y24771711D01*
X34711559Y25233171D01*
X34819833Y25777500D01*
X34711559Y26321829D01*
X34403222Y26783289D01*
X34007801Y27047500D01*
X34403222Y27311711D01*
X34711559Y27773171D01*
X34754795Y27990537D01*
X38340714Y27990537D01*
X38591534Y27383505D01*
X38927132Y27047321D01*
X38593166Y26713937D01*
X38341287Y26107345D01*
X38340714Y25450537D01*
X38591534Y24843505D01*
X39055563Y24378666D01*
X39662155Y24126787D01*
X40318963Y24126214D01*
X40925995Y24377034D01*
X41390834Y24841063D01*
X41642713Y25447655D01*
X41643234Y26045858D01*
X45950184Y26045858D01*
X45973986Y25389481D01*
X46179378Y24893620D01*
X46447893Y24792998D01*
X47432395Y25777500D01*
X46447893Y26762002D01*
X46179378Y26661380D01*
X45950184Y26045858D01*
X41643234Y26045858D01*
X41643286Y26104463D01*
X41392466Y26711495D01*
X41056868Y27047679D01*
X41390834Y27381063D01*
X41642713Y27987655D01*
X41643286Y28644463D01*
X41392466Y29251495D01*
X40928437Y29716334D01*
X40321845Y29968213D01*
X39665037Y29968786D01*
X39058005Y29717966D01*
X38593166Y29253937D01*
X38341287Y28647345D01*
X38340714Y27990537D01*
X34754795Y27990537D01*
X34819833Y28317500D01*
X34711559Y28861829D01*
X34403222Y29323289D01*
X34007801Y29587500D01*
X34403222Y29851711D01*
X34711559Y30313171D01*
X34819833Y30857500D01*
X34711559Y31401829D01*
X34403222Y31863289D01*
X34007801Y32127500D01*
X34403222Y32391711D01*
X34711559Y32853171D01*
X34762993Y33111750D01*
X41917320Y33111750D01*
X41917320Y32021511D01*
X42013993Y31788122D01*
X42192621Y31609493D01*
X42426010Y31512820D01*
X43516250Y31512820D01*
X43675000Y31671570D01*
X43675000Y33270500D01*
X43929000Y33270500D01*
X43929000Y31671570D01*
X44087750Y31512820D01*
X45177990Y31512820D01*
X45411379Y31609493D01*
X45590007Y31788122D01*
X45686680Y32021511D01*
X45686680Y33111750D01*
X45527930Y33270500D01*
X43929000Y33270500D01*
X43675000Y33270500D01*
X42076070Y33270500D01*
X41917320Y33111750D01*
X34762993Y33111750D01*
X34819833Y33397500D01*
X34711559Y33941829D01*
X34403222Y34403289D01*
X34007801Y34667500D01*
X34166425Y34773489D01*
X41917320Y34773489D01*
X41917320Y33683250D01*
X42076070Y33524500D01*
X43675000Y33524500D01*
X43675000Y35123430D01*
X43929000Y35123430D01*
X43929000Y33524500D01*
X45527930Y33524500D01*
X45686680Y33683250D01*
X45686680Y34773489D01*
X45590007Y35006878D01*
X45411379Y35185507D01*
X45177990Y35282180D01*
X44087750Y35282180D01*
X43929000Y35123430D01*
X43675000Y35123430D01*
X43516250Y35282180D01*
X42426010Y35282180D01*
X42192621Y35185507D01*
X42013993Y35006878D01*
X41917320Y34773489D01*
X34166425Y34773489D01*
X34403222Y34931711D01*
X34711559Y35393171D01*
X34819833Y35937500D01*
X34711559Y36481829D01*
X34403222Y36943289D01*
X34007801Y37207500D01*
X34403222Y37471711D01*
X34711559Y37933171D01*
X34819833Y38477500D01*
X34711559Y39021829D01*
X34403222Y39483289D01*
X34007801Y39747500D01*
X34403222Y40011711D01*
X34711559Y40473171D01*
X34819833Y41017500D01*
X34711559Y41561829D01*
X34403222Y42023289D01*
X34008170Y42287254D01*
X34024262Y42291975D01*
X34207206Y42439341D01*
X35878446Y42439341D01*
X35971288Y42177412D01*
X36563801Y41958825D01*
X37194861Y41983622D01*
X37662712Y42177412D01*
X37755554Y42439341D01*
X36817000Y43377895D01*
X35878446Y42439341D01*
X34207206Y42439341D01*
X34458191Y42641514D01*
X34725327Y43130504D01*
X34742010Y43210440D01*
X34619852Y43430500D01*
X33134000Y43430500D01*
X33134000Y43410500D01*
X32880000Y43410500D01*
X32880000Y43430500D01*
X32860000Y43430500D01*
X32860000Y43684500D01*
X32880000Y43684500D01*
X32880000Y43704500D01*
X33134000Y43704500D01*
X33134000Y43684500D01*
X34619852Y43684500D01*
X34689906Y43810699D01*
X35218325Y43810699D01*
X35243122Y43179639D01*
X35436912Y42711788D01*
X35698841Y42618946D01*
X36637395Y43557500D01*
X36996605Y43557500D01*
X37935159Y42618946D01*
X38197088Y42711788D01*
X38415675Y43304301D01*
X38390878Y43935361D01*
X38197088Y44403212D01*
X37935159Y44496054D01*
X36996605Y43557500D01*
X36637395Y43557500D01*
X35698841Y44496054D01*
X35436912Y44403212D01*
X35218325Y43810699D01*
X34689906Y43810699D01*
X34742010Y43904560D01*
X34725327Y43984496D01*
X34458191Y44473486D01*
X34207207Y44675659D01*
X35878446Y44675659D01*
X36817000Y43737105D01*
X37755554Y44675659D01*
X37662712Y44937588D01*
X37070199Y45156175D01*
X36439139Y45131378D01*
X35971288Y44937588D01*
X35878446Y44675659D01*
X34207207Y44675659D01*
X34024262Y44823025D01*
X34008170Y44827746D01*
X34403222Y45091711D01*
X34711559Y45553171D01*
X34819833Y46097500D01*
X34711559Y46641829D01*
X34403222Y47103289D01*
X33941762Y47411626D01*
X33397433Y47519900D01*
X32616567Y47519900D01*
X32072238Y47411626D01*
X31737000Y47187628D01*
X31737000Y48108393D01*
X35832498Y48108393D01*
X35933120Y47839878D01*
X36548642Y47610684D01*
X37205019Y47634486D01*
X37700880Y47839878D01*
X37801502Y48108393D01*
X36817000Y49092895D01*
X35832498Y48108393D01*
X31737000Y48108393D01*
X31737000Y50174264D01*
X34391236Y52828500D01*
X35153560Y52828500D01*
X35153560Y50796500D01*
X35197838Y50561183D01*
X35336910Y50345059D01*
X35532057Y50211721D01*
X35384378Y50156380D01*
X35155184Y49540858D01*
X35178986Y48884481D01*
X35384378Y48388620D01*
X35652893Y48287998D01*
X36637395Y49272500D01*
X36623253Y49286642D01*
X36802858Y49466247D01*
X36817000Y49452105D01*
X36831143Y49466247D01*
X37010748Y49286642D01*
X36996605Y49272500D01*
X37981107Y48287998D01*
X38249622Y48388620D01*
X38478816Y49004142D01*
X38455014Y49660519D01*
X38249622Y50156380D01*
X38098746Y50212919D01*
X38222629Y50292635D01*
X38849000Y49666264D01*
X38849000Y40877736D01*
X37755575Y39784311D01*
X37717421Y39822532D01*
X37134159Y40064724D01*
X36502612Y40065275D01*
X35918928Y39824102D01*
X35471968Y39377921D01*
X35229776Y38794659D01*
X35229225Y38163112D01*
X35470398Y37579428D01*
X35916579Y37132468D01*
X36499841Y36890276D01*
X37131388Y36889725D01*
X37715072Y37130898D01*
X38162032Y37577079D01*
X38251961Y37793653D01*
X38334618Y37848882D01*
X38589995Y38104259D01*
X41916994Y38104259D01*
X42203314Y37411309D01*
X42733021Y36880678D01*
X43425469Y36593148D01*
X44175241Y36592494D01*
X44868191Y36878814D01*
X45398822Y37408521D01*
X45686352Y38100969D01*
X45687006Y38850741D01*
X45400686Y39543691D01*
X44870979Y40074322D01*
X44178531Y40361852D01*
X43428759Y40362506D01*
X42735809Y40076186D01*
X42205178Y39546479D01*
X41917648Y38854031D01*
X41916994Y38104259D01*
X38589995Y38104259D01*
X40366618Y39880882D01*
X40489457Y40064724D01*
X40559329Y40169294D01*
X40627000Y40509500D01*
X40627000Y44541750D01*
X44691000Y44541750D01*
X44691000Y43685191D01*
X44787673Y43451802D01*
X44966301Y43273173D01*
X45199690Y43176500D01*
X46056250Y43176500D01*
X46215000Y43335250D01*
X46215000Y44700500D01*
X46469000Y44700500D01*
X46469000Y43335250D01*
X46627750Y43176500D01*
X47484310Y43176500D01*
X47717699Y43273173D01*
X47896327Y43451802D01*
X47993000Y43685191D01*
X47993000Y44541750D01*
X47834250Y44700500D01*
X46469000Y44700500D01*
X46215000Y44700500D01*
X44849750Y44700500D01*
X44691000Y44541750D01*
X40627000Y44541750D01*
X40627000Y45969809D01*
X44691000Y45969809D01*
X44691000Y45113250D01*
X44849750Y44954500D01*
X46215000Y44954500D01*
X46215000Y46319750D01*
X46469000Y46319750D01*
X46469000Y44954500D01*
X47834250Y44954500D01*
X47993000Y45113250D01*
X47993000Y45969809D01*
X47896327Y46203198D01*
X47717699Y46381827D01*
X47484310Y46478500D01*
X46627750Y46478500D01*
X46469000Y46319750D01*
X46215000Y46319750D01*
X46056250Y46478500D01*
X45199690Y46478500D01*
X44966301Y46381827D01*
X44787673Y46203198D01*
X44691000Y45969809D01*
X40627000Y45969809D01*
X40627000Y49161750D01*
X42846000Y49161750D01*
X42846000Y48571191D01*
X42942673Y48337802D01*
X43121301Y48159173D01*
X43354690Y48062500D01*
X43945250Y48062500D01*
X44104000Y48221250D01*
X44104000Y49320500D01*
X43004750Y49320500D01*
X42846000Y49161750D01*
X40627000Y49161750D01*
X40627000Y50034500D01*
X40559329Y50374706D01*
X40366618Y50663118D01*
X38588618Y52441118D01*
X38480440Y52513400D01*
X38480440Y52828500D01*
X38436162Y53063817D01*
X38297090Y53279941D01*
X38084890Y53424931D01*
X37833000Y53475940D01*
X35801000Y53475940D01*
X35565683Y53431662D01*
X35349559Y53292590D01*
X35204569Y53080390D01*
X35153560Y52828500D01*
X34391236Y52828500D01*
X36683618Y55120882D01*
X36718586Y55173215D01*
X42845760Y55173215D01*
X43056169Y54663985D01*
X43272313Y54447464D01*
X43057539Y54233064D01*
X42846241Y53724202D01*
X42845760Y53173215D01*
X43056169Y52663985D01*
X43272313Y52447464D01*
X43057539Y52233064D01*
X42846241Y51724202D01*
X42845760Y51173215D01*
X43054207Y50668733D01*
X42942673Y50557198D01*
X42846000Y50323809D01*
X42846000Y49733250D01*
X43004750Y49574500D01*
X44104000Y49574500D01*
X44104000Y49594500D01*
X44358000Y49594500D01*
X44358000Y49574500D01*
X44378000Y49574500D01*
X44378000Y49320500D01*
X44358000Y49320500D01*
X44358000Y48221250D01*
X44516750Y48062500D01*
X45107310Y48062500D01*
X45340699Y48159173D01*
X45519327Y48337802D01*
X45563019Y48443284D01*
X46012155Y48256787D01*
X46668963Y48256214D01*
X47275995Y48507034D01*
X47740834Y48971063D01*
X47992713Y49577655D01*
X47993286Y50234463D01*
X47742466Y50841495D01*
X47278437Y51306334D01*
X46671845Y51558213D01*
X46015037Y51558786D01*
X45615954Y51393888D01*
X45616240Y51721785D01*
X45405831Y52231015D01*
X45189687Y52447536D01*
X45404461Y52661936D01*
X45615759Y53170798D01*
X45616047Y53501265D01*
X46012155Y53336787D01*
X46668963Y53336214D01*
X47275995Y53587034D01*
X47740834Y54051063D01*
X47992713Y54657655D01*
X47993286Y55314463D01*
X47742466Y55921495D01*
X47278437Y56386334D01*
X46671845Y56638213D01*
X46015037Y56638786D01*
X45408005Y56387966D01*
X45328441Y56308540D01*
X45016564Y56620961D01*
X44507702Y56832259D01*
X43956715Y56832740D01*
X43447485Y56622331D01*
X43057539Y56233064D01*
X42846241Y55724202D01*
X42845760Y55173215D01*
X36718586Y55173215D01*
X36876329Y55409294D01*
X36944000Y55749500D01*
X36944000Y59740537D01*
X44690714Y59740537D01*
X44941534Y59133505D01*
X45405563Y58668666D01*
X46012155Y58416787D01*
X46668963Y58416214D01*
X47275995Y58667034D01*
X47740834Y59131063D01*
X47992713Y59737655D01*
X47993286Y60394463D01*
X47742466Y61001495D01*
X47278437Y61466334D01*
X46671845Y61718213D01*
X46015037Y61718786D01*
X45408005Y61467966D01*
X44943166Y61003937D01*
X44691287Y60397345D01*
X44690714Y59740537D01*
X36944000Y59740537D01*
X36944000Y65078574D01*
X37236332Y64957187D01*
X37665784Y64956813D01*
X38062689Y65120811D01*
X38089425Y65147500D01*
X45326000Y65147500D01*
X45666206Y65215171D01*
X45954618Y65407882D01*
X47224618Y66677882D01*
X47295619Y66784142D01*
X47417329Y66966294D01*
X47485000Y67306500D01*
X47485000Y68400675D01*
X47740834Y68656063D01*
X47992713Y69262655D01*
X47993286Y69919463D01*
X47742466Y70526495D01*
X47278437Y70991334D01*
X46815721Y71183471D01*
X46916759Y71426798D01*
X46917240Y71977785D01*
X46706831Y72487015D01*
X46317564Y72876961D01*
X45808702Y73088259D01*
X45257715Y73088740D01*
X44748485Y72878331D01*
X44531964Y72662187D01*
X44317564Y72876961D01*
X43808702Y73088259D01*
X43257715Y73088740D01*
X42748485Y72878331D01*
X42531964Y72662187D01*
X42317564Y72876961D01*
X41808702Y73088259D01*
X41257715Y73088740D01*
X40753233Y72880293D01*
X40641698Y72991827D01*
X40408309Y73088500D01*
X39817750Y73088500D01*
X39659000Y72929750D01*
X39659000Y71830500D01*
X39679000Y71830500D01*
X39679000Y71576500D01*
X39659000Y71576500D01*
X39659000Y71556500D01*
X39405000Y71556500D01*
X39405000Y71576500D01*
X38305750Y71576500D01*
X38147000Y71417750D01*
X38147000Y71243500D01*
X37579691Y71243500D01*
X37346302Y71146827D01*
X37167673Y70968199D01*
X37071000Y70734810D01*
X37071000Y69878250D01*
X37229750Y69719500D01*
X38595000Y69719500D01*
X38595000Y69739500D01*
X38849000Y69739500D01*
X38849000Y69719500D01*
X38869000Y69719500D01*
X38869000Y69465500D01*
X38849000Y69465500D01*
X38849000Y68100250D01*
X39007750Y67941500D01*
X39864309Y67941500D01*
X40097698Y68038173D01*
X40276327Y68216801D01*
X40283993Y68235308D01*
X40325563Y68193666D01*
X40932155Y67941787D01*
X41588963Y67941214D01*
X42195995Y68192034D01*
X42532179Y68527632D01*
X42865563Y68193666D01*
X43472155Y67941787D01*
X44128963Y67941214D01*
X44735995Y68192034D01*
X45072179Y68527632D01*
X45405563Y68193666D01*
X45707000Y68068498D01*
X45707000Y67674736D01*
X44957764Y66925500D01*
X38089863Y66925500D01*
X38064286Y66951122D01*
X37667668Y67115813D01*
X37238216Y67116187D01*
X36944000Y66994619D01*
X36944000Y69306750D01*
X37071000Y69306750D01*
X37071000Y68450190D01*
X37167673Y68216801D01*
X37346302Y68038173D01*
X37579691Y67941500D01*
X38436250Y67941500D01*
X38595000Y68100250D01*
X38595000Y69465500D01*
X37229750Y69465500D01*
X37071000Y69306750D01*
X36944000Y69306750D01*
X36944000Y72579810D01*
X38147000Y72579810D01*
X38147000Y71989250D01*
X38305750Y71830500D01*
X39405000Y71830500D01*
X39405000Y72929750D01*
X39246250Y73088500D01*
X38655691Y73088500D01*
X38422302Y72991827D01*
X38243673Y72813199D01*
X38147000Y72579810D01*
X36944000Y72579810D01*
X36944000Y74222574D01*
X37236332Y74101187D01*
X37665784Y74100813D01*
X38062689Y74264811D01*
X38089425Y74291500D01*
X44437000Y74291500D01*
X44777206Y74359171D01*
X45065618Y74551882D01*
X46970618Y76456882D01*
X47163329Y76745294D01*
X47226220Y77061467D01*
X47275995Y77082034D01*
X47740834Y77546063D01*
X47992713Y78152655D01*
X47993286Y78809463D01*
X47742466Y79416495D01*
X47278437Y79881334D01*
X46815721Y80073471D01*
X46916759Y80316798D01*
X46917240Y80867785D01*
X46706831Y81377015D01*
X46317564Y81766961D01*
X45808702Y81978259D01*
X45257715Y81978740D01*
X44748485Y81768331D01*
X44531964Y81552187D01*
X44317564Y81766961D01*
X43956366Y81916943D01*
X44269206Y81979171D01*
X44557618Y82171882D01*
X46970618Y84584882D01*
X47163329Y84873294D01*
X47231000Y85213500D01*
X47231000Y85953442D01*
X47275995Y85972034D01*
X47740834Y86436063D01*
X47992713Y87042655D01*
X47993286Y87699463D01*
X47742466Y88306495D01*
X47278437Y88771334D01*
X46815721Y88963471D01*
X46916759Y89206798D01*
X46917240Y89757785D01*
X46706831Y90267015D01*
X46317564Y90656961D01*
X45808702Y90868259D01*
X45257715Y90868740D01*
X44748485Y90658331D01*
X44531964Y90442187D01*
X44317564Y90656961D01*
X43808702Y90868259D01*
X43257715Y90868740D01*
X42748485Y90658331D01*
X42531964Y90442187D01*
X42317564Y90656961D01*
X41808702Y90868259D01*
X41257715Y90868740D01*
X40753233Y90660293D01*
X40641698Y90771827D01*
X40408309Y90868500D01*
X39817750Y90868500D01*
X39659000Y90709750D01*
X39659000Y89610500D01*
X39679000Y89610500D01*
X39679000Y89356500D01*
X39659000Y89356500D01*
X39659000Y89336500D01*
X39405000Y89336500D01*
X39405000Y89356500D01*
X38305750Y89356500D01*
X38147000Y89197750D01*
X38147000Y89023500D01*
X37579691Y89023500D01*
X37346302Y88926827D01*
X37167673Y88748199D01*
X37071000Y88514810D01*
X37071000Y87658250D01*
X37229750Y87499500D01*
X38595000Y87499500D01*
X38595000Y87519500D01*
X38849000Y87519500D01*
X38849000Y87499500D01*
X38869000Y87499500D01*
X38869000Y87245500D01*
X38849000Y87245500D01*
X38849000Y85880250D01*
X39007750Y85721500D01*
X39864309Y85721500D01*
X40097698Y85818173D01*
X40276327Y85996801D01*
X40283993Y86015308D01*
X40325563Y85973666D01*
X40932155Y85721787D01*
X41588963Y85721214D01*
X42195995Y85972034D01*
X42532179Y86307632D01*
X42704387Y86135123D01*
X41782764Y85213500D01*
X36944000Y85213500D01*
X36603794Y85145829D01*
X36324933Y84959500D01*
X36315382Y84953118D01*
X34537382Y83175118D01*
X34344671Y82886706D01*
X34277000Y82546500D01*
X34277000Y75817925D01*
X34000286Y76095122D01*
X33603668Y76259813D01*
X33174216Y76260187D01*
X32777311Y76096189D01*
X32473378Y75792786D01*
X32308687Y75396168D01*
X32308313Y74966716D01*
X32472311Y74569811D01*
X32775714Y74265878D01*
X33172332Y74101187D01*
X33210110Y74101154D01*
X33261000Y74050264D01*
X33261000Y66928368D01*
X33238286Y66951122D01*
X32841668Y67115813D01*
X32412216Y67116187D01*
X32015311Y66952189D01*
X31711378Y66648786D01*
X31546687Y66252168D01*
X31546313Y65822716D01*
X31710311Y65425811D01*
X32013714Y65121878D01*
X32245000Y65025839D01*
X32245000Y57641418D01*
X32144689Y57884189D01*
X31841286Y58188122D01*
X31444668Y58352813D01*
X31015216Y58353187D01*
X30618311Y58189189D01*
X30591575Y58162500D01*
X29959000Y58162500D01*
X29618795Y58094830D01*
X29330382Y57902118D01*
X25647382Y54219118D01*
X25454671Y53930706D01*
X25387000Y53590500D01*
X25387000Y51418736D01*
X22986764Y49018500D01*
X17132000Y49018500D01*
X16791794Y48950829D01*
X16503382Y48758118D01*
X15995382Y48250118D01*
X15802671Y47961706D01*
X15735000Y47621500D01*
X15735000Y43938500D01*
X15802671Y43598294D01*
X15900554Y43451802D01*
X15995382Y43309882D01*
X16376382Y42928882D01*
X16664794Y42736171D01*
X16915900Y42686223D01*
X17005778Y42551711D01*
X17401199Y42287500D01*
X17005778Y42023289D01*
X16697441Y41561829D01*
X16589167Y41017500D01*
X16697441Y40473171D01*
X17005778Y40011711D01*
X17400830Y39747746D01*
X17384738Y39743025D01*
X16950809Y39393486D01*
X16683673Y38904496D01*
X16666990Y38824560D01*
X16789148Y38604500D01*
X18275000Y38604500D01*
X18275000Y38624500D01*
X18529000Y38624500D01*
X18529000Y38604500D01*
X20014852Y38604500D01*
X20137010Y38824560D01*
X20120327Y38904496D01*
X19853191Y39393486D01*
X19419262Y39743025D01*
X19403170Y39747746D01*
X19798222Y40011711D01*
X20106559Y40473171D01*
X20214833Y41017500D01*
X20106559Y41561829D01*
X19798222Y42023289D01*
X19402801Y42287500D01*
X19798222Y42551711D01*
X20106559Y43013171D01*
X20214833Y43557500D01*
X20106559Y44101829D01*
X19798222Y44563289D01*
X19626540Y44678003D01*
X19780317Y44706938D01*
X19996441Y44846010D01*
X20141431Y45058210D01*
X20171865Y45208500D01*
X22351764Y45208500D01*
X22091382Y44948118D01*
X21898671Y44659706D01*
X21831000Y44319500D01*
X21831000Y36702146D01*
X21681286Y36852122D01*
X21284668Y37016813D01*
X20855216Y37017187D01*
X20458311Y36853189D01*
X20154378Y36549786D01*
X20112907Y36449914D01*
X20106559Y36481829D01*
X19798222Y36943289D01*
X19403170Y37207254D01*
X19419262Y37211975D01*
X19853191Y37561514D01*
X20120327Y38050504D01*
X20137010Y38130440D01*
X20014852Y38350500D01*
X18529000Y38350500D01*
X18529000Y38330500D01*
X18275000Y38330500D01*
X18275000Y38350500D01*
X16789148Y38350500D01*
X16666990Y38130440D01*
X16683673Y38050504D01*
X16950809Y37561514D01*
X17384738Y37211975D01*
X17400830Y37207254D01*
X17005778Y36943289D01*
X16697441Y36481829D01*
X16589167Y35937500D01*
X16697441Y35393171D01*
X17005778Y34931711D01*
X17401199Y34667500D01*
X17005778Y34403289D01*
X16697441Y33941829D01*
X16589167Y33397500D01*
X16697441Y32853171D01*
X17005778Y32391711D01*
X17401199Y32127500D01*
X17005778Y31863289D01*
X16697441Y31401829D01*
X16589167Y30857500D01*
X16697441Y30313171D01*
X17005778Y29851711D01*
X17401199Y29587500D01*
X17005778Y29323289D01*
X16697441Y28861829D01*
X16589167Y28317500D01*
X16697441Y27773171D01*
X17005778Y27311711D01*
X17401199Y27047500D01*
X17005778Y26783289D01*
X16697441Y26321829D01*
X16589167Y25777500D01*
X16697441Y25233171D01*
X17005778Y24771711D01*
X17401199Y24507500D01*
X17005778Y24243289D01*
X16697441Y23781829D01*
X16589167Y23237500D01*
X16697441Y22693171D01*
X17005778Y22231711D01*
X17401199Y21967500D01*
X17005778Y21703289D01*
X16697441Y21241829D01*
X16677111Y21139625D01*
X15481000Y22335736D01*
X15481000Y49514060D01*
X15608000Y49514060D01*
X15843317Y49558338D01*
X16059441Y49697410D01*
X16204431Y49909610D01*
X16255440Y50161500D01*
X16255440Y52193500D01*
X16211162Y52428817D01*
X16072090Y52644941D01*
X15942900Y52733213D01*
X15990834Y52781063D01*
X16242713Y53387655D01*
X16243286Y54044463D01*
X15992466Y54651495D01*
X15528437Y55116334D01*
X14921845Y55368213D01*
X14265037Y55368786D01*
X13658005Y55117966D01*
X13193166Y54653937D01*
X12941287Y54047345D01*
X12940714Y53390537D01*
X13191534Y52783505D01*
X13241872Y52733079D01*
X13124559Y52657590D01*
X12979569Y52445390D01*
X12928560Y52193500D01*
X12928560Y50161500D01*
X12972838Y49926183D01*
X13111910Y49710059D01*
X13324110Y49565069D01*
X13576000Y49514060D01*
X13703000Y49514060D01*
X13703000Y32086751D01*
X13587421Y32202532D01*
X13004159Y32444724D01*
X12372612Y32445275D01*
X11788928Y32204102D01*
X11341968Y31757921D01*
X11099776Y31174659D01*
X11099225Y30543112D01*
X11340398Y29959428D01*
X11786579Y29512468D01*
X12369841Y29270276D01*
X13001388Y29269725D01*
X13585072Y29510898D01*
X13703000Y29628620D01*
X13703000Y26973108D01*
X13625553Y26895661D01*
X13532712Y27157588D01*
X12940199Y27376175D01*
X12309139Y27351378D01*
X11841288Y27157588D01*
X11748446Y26895659D01*
X12687000Y25957105D01*
X12701143Y25971247D01*
X12880748Y25791642D01*
X12866605Y25777500D01*
X12880748Y25763357D01*
X12701143Y25583752D01*
X12687000Y25597895D01*
X11748446Y24659341D01*
X11841288Y24397412D01*
X12433801Y24178825D01*
X13064861Y24203622D01*
X13532712Y24397412D01*
X13625553Y24659339D01*
X13703000Y24581892D01*
X13703000Y21967500D01*
X13713122Y21916611D01*
X13587421Y22042532D01*
X13004159Y22284724D01*
X12372612Y22285275D01*
X11788928Y22044102D01*
X11341968Y21597921D01*
X11099776Y21014659D01*
X11099225Y20383112D01*
X11340398Y19799428D01*
X11786579Y19352468D01*
X12369841Y19110276D01*
X13001388Y19109725D01*
X13585072Y19350898D01*
X14032032Y19797079D01*
X14274224Y20380341D01*
X14274775Y21011888D01*
X14263790Y21038474D01*
X16681347Y18620917D01*
X16589167Y18157500D01*
X16697441Y17613171D01*
X17005778Y17151711D01*
X17401199Y16887500D01*
X17005778Y16623289D01*
X16697441Y16161829D01*
X16589167Y15617500D01*
X16697441Y15073171D01*
X17005778Y14611711D01*
X17401199Y14347500D01*
X17005778Y14083289D01*
X16697441Y13621829D01*
X16589167Y13077500D01*
X16697441Y12533171D01*
X17005778Y12071711D01*
X17401199Y11807500D01*
X17005778Y11543289D01*
X16697441Y11081829D01*
X16589167Y10537500D01*
X16697441Y9993171D01*
X17005778Y9531711D01*
X17467238Y9223374D01*
X18011567Y9115100D01*
X18792433Y9115100D01*
X19336762Y9223374D01*
X19798222Y9531711D01*
X20106559Y9993171D01*
X20214833Y10537500D01*
X20106559Y11081829D01*
X19798222Y11543289D01*
X19402801Y11807500D01*
X19798222Y12071711D01*
X20106559Y12533171D01*
X20214833Y13077500D01*
X20106559Y13621829D01*
X19798222Y14083289D01*
X19402801Y14347500D01*
X19798222Y14611711D01*
X20106559Y15073171D01*
X20214833Y15617500D01*
X20106559Y16161829D01*
X19798222Y16623289D01*
X19402801Y16887500D01*
X19798222Y17151711D01*
X20106559Y17613171D01*
X20214833Y18157500D01*
X20106559Y18701829D01*
X19798222Y19163289D01*
X19402801Y19427500D01*
X19798222Y19691711D01*
X19913560Y19864327D01*
X19913560Y19681500D01*
X19957838Y19446183D01*
X20096910Y19230059D01*
X20309110Y19085069D01*
X20561000Y19034060D01*
X22593000Y19034060D01*
X22828317Y19078338D01*
X23044441Y19217410D01*
X23189431Y19429610D01*
X23240440Y19681500D01*
X23240440Y21713500D01*
X23196162Y21948817D01*
X23057090Y22164941D01*
X22908163Y22266698D01*
X23134670Y22605690D01*
X23260345Y23237500D01*
X23134670Y23869310D01*
X22776778Y24404933D01*
X22241155Y24762825D01*
X21609345Y24888500D01*
X21544655Y24888500D01*
X20912845Y24762825D01*
X20377222Y24404933D01*
X20033718Y23890843D01*
X19798222Y24243289D01*
X19402801Y24507500D01*
X19798222Y24771711D01*
X20106559Y25233171D01*
X20214833Y25777500D01*
X20106559Y26321829D01*
X19798222Y26783289D01*
X19402801Y27047500D01*
X19798222Y27311711D01*
X20106559Y27773171D01*
X20214833Y28317500D01*
X20106559Y28861829D01*
X19798222Y29323289D01*
X19402801Y29587500D01*
X19798222Y29851711D01*
X20106559Y30313171D01*
X20180000Y30682383D01*
X20180000Y29460500D01*
X20247671Y29120294D01*
X20274929Y29079500D01*
X20440382Y28831882D01*
X23482000Y25790264D01*
X23482000Y11413736D01*
X19557764Y7489500D01*
X16243000Y7489500D01*
X15902794Y7421829D01*
X15614382Y7229118D01*
X12693382Y4308118D01*
X12500671Y4019706D01*
X12457436Y3802347D01*
X12340587Y3754066D01*
X12324800Y3738306D01*
X12191988Y3871117D01*
X11958599Y3967790D01*
X11067750Y3967790D01*
X10909000Y3809040D01*
X10909000Y2409500D01*
X10929000Y2409500D01*
X10929000Y2155500D01*
X10909000Y2155500D01*
X10909000Y2135500D01*
X10655000Y2135500D01*
X10655000Y2155500D01*
X9255460Y2155500D01*
X9096710Y1996750D01*
X9096710Y1105900D01*
X9193383Y872511D01*
X9240394Y825500D01*
X5081303Y825500D01*
X3408678Y1158206D01*
X2059618Y2059618D01*
X1158206Y3408677D01*
X893651Y4738685D01*
X2851630Y4738685D01*
X3175980Y3953700D01*
X3776041Y3352591D01*
X4560459Y3026872D01*
X5409815Y3026130D01*
X6194800Y3350480D01*
X6303609Y3459100D01*
X9096710Y3459100D01*
X9096710Y2568250D01*
X9255460Y2409500D01*
X10655000Y2409500D01*
X10655000Y3809040D01*
X10496250Y3967790D01*
X9605401Y3967790D01*
X9372012Y3871117D01*
X9193383Y3692489D01*
X9096710Y3459100D01*
X6303609Y3459100D01*
X6795909Y3950541D01*
X7121628Y4734959D01*
X7122370Y5584315D01*
X6798020Y6369300D01*
X6197959Y6970409D01*
X5413541Y7296128D01*
X4564185Y7296870D01*
X3779200Y6972520D01*
X3178091Y6372459D01*
X2852372Y5588041D01*
X2851630Y4738685D01*
X893651Y4738685D01*
X825500Y5081303D01*
X825500Y15331750D01*
X4452320Y15331750D01*
X4452320Y14241511D01*
X4548993Y14008122D01*
X4727621Y13829493D01*
X4961010Y13732820D01*
X6051250Y13732820D01*
X6210000Y13891570D01*
X6210000Y15490500D01*
X6464000Y15490500D01*
X6464000Y13891570D01*
X6622750Y13732820D01*
X7712990Y13732820D01*
X7946379Y13829493D01*
X8125007Y14008122D01*
X8221680Y14241511D01*
X8221680Y14499341D01*
X11748446Y14499341D01*
X11841288Y14237412D01*
X12433801Y14018825D01*
X13064861Y14043622D01*
X13532712Y14237412D01*
X13625554Y14499341D01*
X12687000Y15437895D01*
X11748446Y14499341D01*
X8221680Y14499341D01*
X8221680Y15331750D01*
X8062930Y15490500D01*
X6464000Y15490500D01*
X6210000Y15490500D01*
X4611070Y15490500D01*
X4452320Y15331750D01*
X825500Y15331750D01*
X825500Y16993489D01*
X4452320Y16993489D01*
X4452320Y15903250D01*
X4611070Y15744500D01*
X6210000Y15744500D01*
X6210000Y17343430D01*
X6464000Y17343430D01*
X6464000Y15744500D01*
X8062930Y15744500D01*
X8189129Y15870699D01*
X11088325Y15870699D01*
X11113122Y15239639D01*
X11306912Y14771788D01*
X11568841Y14678946D01*
X12507395Y15617500D01*
X12866605Y15617500D01*
X13805159Y14678946D01*
X14067088Y14771788D01*
X14285675Y15364301D01*
X14260878Y15995361D01*
X14067088Y16463212D01*
X13805159Y16556054D01*
X12866605Y15617500D01*
X12507395Y15617500D01*
X11568841Y16556054D01*
X11306912Y16463212D01*
X11088325Y15870699D01*
X8189129Y15870699D01*
X8221680Y15903250D01*
X8221680Y16735659D01*
X11748446Y16735659D01*
X12687000Y15797105D01*
X13625554Y16735659D01*
X13532712Y16997588D01*
X12940199Y17216175D01*
X12309139Y17191378D01*
X11841288Y16997588D01*
X11748446Y16735659D01*
X8221680Y16735659D01*
X8221680Y16993489D01*
X8125007Y17226878D01*
X7946379Y17405507D01*
X7712990Y17502180D01*
X6622750Y17502180D01*
X6464000Y17343430D01*
X6210000Y17343430D01*
X6051250Y17502180D01*
X4961010Y17502180D01*
X4727621Y17405507D01*
X4548993Y17226878D01*
X4452320Y16993489D01*
X825500Y16993489D01*
X825500Y20324259D01*
X4451994Y20324259D01*
X4738314Y19631309D01*
X5268021Y19100678D01*
X5960469Y18813148D01*
X6710241Y18812494D01*
X7403191Y19098814D01*
X7933822Y19628521D01*
X8221352Y20320969D01*
X8222006Y21070741D01*
X7935686Y21763691D01*
X7405979Y22294322D01*
X6713531Y22581852D01*
X5963759Y22582506D01*
X5270809Y22296186D01*
X4740178Y21766479D01*
X4452648Y21074031D01*
X4451994Y20324259D01*
X825500Y20324259D01*
X825500Y25491750D01*
X4452320Y25491750D01*
X4452320Y24401511D01*
X4548993Y24168122D01*
X4727621Y23989493D01*
X4961010Y23892820D01*
X6051250Y23892820D01*
X6210000Y24051570D01*
X6210000Y25650500D01*
X6464000Y25650500D01*
X6464000Y24051570D01*
X6622750Y23892820D01*
X7712990Y23892820D01*
X7946379Y23989493D01*
X8125007Y24168122D01*
X8221680Y24401511D01*
X8221680Y25491750D01*
X8062930Y25650500D01*
X6464000Y25650500D01*
X6210000Y25650500D01*
X4611070Y25650500D01*
X4452320Y25491750D01*
X825500Y25491750D01*
X825500Y27153489D01*
X4452320Y27153489D01*
X4452320Y26063250D01*
X4611070Y25904500D01*
X6210000Y25904500D01*
X6210000Y27503430D01*
X6464000Y27503430D01*
X6464000Y25904500D01*
X8062930Y25904500D01*
X8189129Y26030699D01*
X11088325Y26030699D01*
X11113122Y25399639D01*
X11306912Y24931788D01*
X11568841Y24838946D01*
X12507395Y25777500D01*
X11568841Y26716054D01*
X11306912Y26623212D01*
X11088325Y26030699D01*
X8189129Y26030699D01*
X8221680Y26063250D01*
X8221680Y27153489D01*
X8125007Y27386878D01*
X7946379Y27565507D01*
X7712990Y27662180D01*
X6622750Y27662180D01*
X6464000Y27503430D01*
X6210000Y27503430D01*
X6051250Y27662180D01*
X4961010Y27662180D01*
X4727621Y27565507D01*
X4548993Y27386878D01*
X4452320Y27153489D01*
X825500Y27153489D01*
X825500Y30484259D01*
X4451994Y30484259D01*
X4738314Y29791309D01*
X5268021Y29260678D01*
X5960469Y28973148D01*
X6710241Y28972494D01*
X7403191Y29258814D01*
X7933822Y29788521D01*
X8221352Y30480969D01*
X8222006Y31230741D01*
X7935686Y31923691D01*
X7405979Y32454322D01*
X6713531Y32741852D01*
X5963759Y32742506D01*
X5270809Y32456186D01*
X4740178Y31926479D01*
X4452648Y31234031D01*
X4451994Y30484259D01*
X825500Y30484259D01*
X825500Y35651750D01*
X4452320Y35651750D01*
X4452320Y34561511D01*
X4548993Y34328122D01*
X4727621Y34149493D01*
X4961010Y34052820D01*
X6051250Y34052820D01*
X6210000Y34211570D01*
X6210000Y35810500D01*
X6464000Y35810500D01*
X6464000Y34211570D01*
X6622750Y34052820D01*
X7712990Y34052820D01*
X7946379Y34149493D01*
X8125007Y34328122D01*
X8221680Y34561511D01*
X8221680Y35651750D01*
X8062930Y35810500D01*
X6464000Y35810500D01*
X6210000Y35810500D01*
X4611070Y35810500D01*
X4452320Y35651750D01*
X825500Y35651750D01*
X825500Y37313489D01*
X4452320Y37313489D01*
X4452320Y36223250D01*
X4611070Y36064500D01*
X6210000Y36064500D01*
X6210000Y37663430D01*
X6464000Y37663430D01*
X6464000Y36064500D01*
X8062930Y36064500D01*
X8221680Y36223250D01*
X8221680Y37313489D01*
X8125007Y37546878D01*
X7946379Y37725507D01*
X7712990Y37822180D01*
X6622750Y37822180D01*
X6464000Y37663430D01*
X6210000Y37663430D01*
X6051250Y37822180D01*
X4961010Y37822180D01*
X4727621Y37725507D01*
X4548993Y37546878D01*
X4452320Y37313489D01*
X825500Y37313489D01*
X825500Y40644259D01*
X4451994Y40644259D01*
X4738314Y39951309D01*
X5268021Y39420678D01*
X5960469Y39133148D01*
X6710241Y39132494D01*
X7403191Y39418814D01*
X7933822Y39948521D01*
X8221352Y40640969D01*
X8222006Y41390741D01*
X7935686Y42083691D01*
X7405979Y42614322D01*
X6713531Y42901852D01*
X5963759Y42902506D01*
X5270809Y42616186D01*
X4740178Y42086479D01*
X4452648Y41394031D01*
X4451994Y40644259D01*
X825500Y40644259D01*
X825500Y45811750D01*
X4452320Y45811750D01*
X4452320Y44721511D01*
X4548993Y44488122D01*
X4727621Y44309493D01*
X4961010Y44212820D01*
X6051250Y44212820D01*
X6210000Y44371570D01*
X6210000Y45970500D01*
X6464000Y45970500D01*
X6464000Y44371570D01*
X6622750Y44212820D01*
X7712990Y44212820D01*
X7946379Y44309493D01*
X8125007Y44488122D01*
X8221680Y44721511D01*
X8221680Y45811750D01*
X8062930Y45970500D01*
X6464000Y45970500D01*
X6210000Y45970500D01*
X4611070Y45970500D01*
X4452320Y45811750D01*
X825500Y45811750D01*
X825500Y47473489D01*
X4452320Y47473489D01*
X4452320Y46383250D01*
X4611070Y46224500D01*
X6210000Y46224500D01*
X6210000Y47823430D01*
X6464000Y47823430D01*
X6464000Y46224500D01*
X8062930Y46224500D01*
X8221680Y46383250D01*
X8221680Y47473489D01*
X8125007Y47706878D01*
X7946379Y47885507D01*
X7712990Y47982180D01*
X6622750Y47982180D01*
X6464000Y47823430D01*
X6210000Y47823430D01*
X6051250Y47982180D01*
X4961010Y47982180D01*
X4727621Y47885507D01*
X4548993Y47706878D01*
X4452320Y47473489D01*
X825500Y47473489D01*
X825500Y50804259D01*
X4451994Y50804259D01*
X4738314Y50111309D01*
X5268021Y49580678D01*
X5960469Y49293148D01*
X6710241Y49292494D01*
X7403191Y49578814D01*
X7933822Y50108521D01*
X8221352Y50800969D01*
X8222006Y51550741D01*
X7935686Y52243691D01*
X7405979Y52774322D01*
X6713531Y53061852D01*
X5963759Y53062506D01*
X5270809Y52776186D01*
X4740178Y52246479D01*
X4452648Y51554031D01*
X4451994Y50804259D01*
X825500Y50804259D01*
X825500Y55971750D01*
X4452320Y55971750D01*
X4452320Y54881511D01*
X4548993Y54648122D01*
X4727621Y54469493D01*
X4961010Y54372820D01*
X6051250Y54372820D01*
X6210000Y54531570D01*
X6210000Y56130500D01*
X6464000Y56130500D01*
X6464000Y54531570D01*
X6622750Y54372820D01*
X7712990Y54372820D01*
X7946379Y54469493D01*
X8125007Y54648122D01*
X8221680Y54881511D01*
X8221680Y55971750D01*
X8062930Y56130500D01*
X6464000Y56130500D01*
X6210000Y56130500D01*
X4611070Y56130500D01*
X4452320Y55971750D01*
X825500Y55971750D01*
X825500Y57633489D01*
X4452320Y57633489D01*
X4452320Y56543250D01*
X4611070Y56384500D01*
X6210000Y56384500D01*
X6210000Y57983430D01*
X6464000Y57983430D01*
X6464000Y56384500D01*
X8062930Y56384500D01*
X8221680Y56543250D01*
X8221680Y57633489D01*
X8125007Y57866878D01*
X7946379Y58045507D01*
X7712990Y58142180D01*
X6622750Y58142180D01*
X6464000Y57983430D01*
X6210000Y57983430D01*
X6051250Y58142180D01*
X4961010Y58142180D01*
X4727621Y58045507D01*
X4548993Y57866878D01*
X4452320Y57633489D01*
X825500Y57633489D01*
X825500Y59105537D01*
X12305714Y59105537D01*
X12556534Y58498505D01*
X13020563Y58033666D01*
X13627155Y57781787D01*
X14283963Y57781214D01*
X14890995Y58032034D01*
X15355834Y58496063D01*
X15607713Y59102655D01*
X15608286Y59759463D01*
X15357466Y60366495D01*
X14893437Y60831334D01*
X14286845Y61083213D01*
X13630037Y61083786D01*
X13023005Y60832966D01*
X12558166Y60368937D01*
X12306287Y59762345D01*
X12305714Y59105537D01*
X825500Y59105537D01*
X825500Y60964259D01*
X4451994Y60964259D01*
X4738314Y60271309D01*
X5268021Y59740678D01*
X5960469Y59453148D01*
X6710241Y59452494D01*
X7403191Y59738814D01*
X7933822Y60268521D01*
X8221352Y60960969D01*
X8222006Y61710741D01*
X8060136Y62102500D01*
X20939560Y62102500D01*
X20939560Y59302500D01*
X20983838Y59067183D01*
X21122910Y58851059D01*
X21335110Y58706069D01*
X21587000Y58655060D01*
X23187000Y58655060D01*
X23422317Y58699338D01*
X23638441Y58838410D01*
X23783431Y59050610D01*
X23834440Y59302500D01*
X23834440Y60575500D01*
X26952000Y60575500D01*
X26952000Y59975500D01*
X27109834Y59436017D01*
X27462104Y58998000D01*
X27955181Y58728133D01*
X28037961Y58710596D01*
X28260000Y58832585D01*
X28260000Y60575500D01*
X28514000Y60575500D01*
X28514000Y58832585D01*
X28736039Y58710596D01*
X28818819Y58728133D01*
X29311896Y58998000D01*
X29664166Y59436017D01*
X29822000Y59975500D01*
X29822000Y60575500D01*
X28514000Y60575500D01*
X28260000Y60575500D01*
X26952000Y60575500D01*
X23834440Y60575500D01*
X23834440Y61429500D01*
X26952000Y61429500D01*
X26952000Y60829500D01*
X28260000Y60829500D01*
X28260000Y62572415D01*
X28514000Y62572415D01*
X28514000Y60829500D01*
X29822000Y60829500D01*
X29822000Y61429500D01*
X29664166Y61968983D01*
X29311896Y62407000D01*
X28818819Y62676867D01*
X28736039Y62694404D01*
X28514000Y62572415D01*
X28260000Y62572415D01*
X28037961Y62694404D01*
X27955181Y62676867D01*
X27462104Y62407000D01*
X27109834Y61968983D01*
X26952000Y61429500D01*
X23834440Y61429500D01*
X23834440Y62102500D01*
X23790162Y62337817D01*
X23657000Y62544757D01*
X23657000Y63272448D01*
X31095026Y70710474D01*
X31370327Y71122492D01*
X31467001Y71608500D01*
X31467000Y71608505D01*
X31467000Y71772178D01*
X31542032Y71847079D01*
X31784224Y72430341D01*
X31784775Y73061888D01*
X31543602Y73645572D01*
X31097421Y74092532D01*
X30514159Y74334724D01*
X29882612Y74335275D01*
X29298928Y74094102D01*
X28851968Y73647921D01*
X28609776Y73064659D01*
X28609225Y72433112D01*
X28789430Y71996982D01*
X21488974Y64696526D01*
X21213673Y64284508D01*
X21116999Y63798500D01*
X21117000Y63798495D01*
X21117000Y62539428D01*
X20990569Y62354390D01*
X20939560Y62102500D01*
X8060136Y62102500D01*
X7935686Y62403691D01*
X7405979Y62934322D01*
X6713531Y63221852D01*
X5963759Y63222506D01*
X5270809Y62936186D01*
X4740178Y62406479D01*
X4452648Y61714031D01*
X4451994Y60964259D01*
X825500Y60964259D01*
X825500Y65888393D01*
X12972498Y65888393D01*
X13073120Y65619878D01*
X13688642Y65390684D01*
X14345019Y65414486D01*
X14840880Y65619878D01*
X14941502Y65888393D01*
X13957000Y66872895D01*
X12972498Y65888393D01*
X825500Y65888393D01*
X825500Y67320858D01*
X12295184Y67320858D01*
X12318986Y66664481D01*
X12524378Y66168620D01*
X12792893Y66067998D01*
X13777395Y67052500D01*
X14136605Y67052500D01*
X15121107Y66067998D01*
X15389622Y66168620D01*
X15618816Y66784142D01*
X15595014Y67440519D01*
X15389622Y67936380D01*
X15121107Y68037002D01*
X14136605Y67052500D01*
X13777395Y67052500D01*
X12792893Y68037002D01*
X12524378Y67936380D01*
X12295184Y67320858D01*
X825500Y67320858D01*
X825500Y68216607D01*
X12972498Y68216607D01*
X13957000Y67232105D01*
X14941502Y68216607D01*
X14840880Y68485122D01*
X14225358Y68714316D01*
X13568981Y68690514D01*
X13073120Y68485122D01*
X12972498Y68216607D01*
X825500Y68216607D01*
X825500Y70576750D01*
X4452320Y70576750D01*
X4452320Y69486511D01*
X4548993Y69253122D01*
X4727621Y69074493D01*
X4961010Y68977820D01*
X6051250Y68977820D01*
X6210000Y69136570D01*
X6210000Y70735500D01*
X6464000Y70735500D01*
X6464000Y69136570D01*
X6622750Y68977820D01*
X7712990Y68977820D01*
X7946379Y69074493D01*
X8125007Y69253122D01*
X8221680Y69486511D01*
X8221680Y70576750D01*
X8062930Y70735500D01*
X6464000Y70735500D01*
X6210000Y70735500D01*
X4611070Y70735500D01*
X4452320Y70576750D01*
X825500Y70576750D01*
X825500Y72238489D01*
X4452320Y72238489D01*
X4452320Y71148250D01*
X4611070Y70989500D01*
X6210000Y70989500D01*
X6210000Y72588430D01*
X6464000Y72588430D01*
X6464000Y70989500D01*
X8062930Y70989500D01*
X8221680Y71148250D01*
X8221680Y72238489D01*
X8125007Y72471878D01*
X7946379Y72650507D01*
X7712990Y72747180D01*
X6622750Y72747180D01*
X6464000Y72588430D01*
X6210000Y72588430D01*
X6051250Y72747180D01*
X4961010Y72747180D01*
X4727621Y72650507D01*
X4548993Y72471878D01*
X4452320Y72238489D01*
X825500Y72238489D01*
X825500Y75569259D01*
X4451994Y75569259D01*
X4738314Y74876309D01*
X5268021Y74345678D01*
X5960469Y74058148D01*
X6710241Y74057494D01*
X7403191Y74343814D01*
X7933822Y74873521D01*
X8221352Y75565969D01*
X8222006Y76315741D01*
X8007357Y76835235D01*
X13448670Y76835235D01*
X13738078Y76134814D01*
X14247422Y75624580D01*
X13739961Y75118005D01*
X13449332Y74418090D01*
X13448670Y73660235D01*
X13738078Y72959814D01*
X14273495Y72423461D01*
X14973410Y72132832D01*
X15731265Y72132170D01*
X16431686Y72421578D01*
X16968039Y72956995D01*
X17258668Y73656910D01*
X17259330Y74414765D01*
X16969922Y75115186D01*
X16460578Y75625420D01*
X16968039Y76131995D01*
X17258668Y76831910D01*
X17258670Y76835235D01*
X22846670Y76835235D01*
X23136078Y76134814D01*
X23645422Y75624580D01*
X23137961Y75118005D01*
X22847332Y74418090D01*
X22846670Y73660235D01*
X23136078Y72959814D01*
X23671495Y72423461D01*
X24371410Y72132832D01*
X25129265Y72132170D01*
X25829686Y72421578D01*
X26366039Y72956995D01*
X26656668Y73656910D01*
X26657330Y74414765D01*
X26367922Y75115186D01*
X25858578Y75625420D01*
X26366039Y76131995D01*
X26656668Y76831910D01*
X26657280Y77533112D01*
X27609225Y77533112D01*
X27850398Y76949428D01*
X28296579Y76502468D01*
X28879841Y76260276D01*
X29511388Y76259725D01*
X30095072Y76500898D01*
X30542032Y76947079D01*
X30784224Y77530341D01*
X30784775Y78161888D01*
X30543602Y78745572D01*
X30097421Y79192532D01*
X29514159Y79434724D01*
X28882612Y79435275D01*
X28298928Y79194102D01*
X27851968Y78747921D01*
X27609776Y78164659D01*
X27609225Y77533112D01*
X26657280Y77533112D01*
X26657330Y77589765D01*
X26367922Y78290186D01*
X25832505Y78826539D01*
X25132590Y79117168D01*
X24374735Y79117830D01*
X23674314Y78828422D01*
X23137961Y78293005D01*
X22847332Y77593090D01*
X22846670Y76835235D01*
X17258670Y76835235D01*
X17259330Y77589765D01*
X16969922Y78290186D01*
X16434505Y78826539D01*
X15734590Y79117168D01*
X14976735Y79117830D01*
X14276314Y78828422D01*
X13739961Y78293005D01*
X13449332Y77593090D01*
X13448670Y76835235D01*
X8007357Y76835235D01*
X7935686Y77008691D01*
X7405979Y77539322D01*
X6713531Y77826852D01*
X5963759Y77827506D01*
X5270809Y77541186D01*
X4740178Y77011479D01*
X4452648Y76319031D01*
X4451994Y75569259D01*
X825500Y75569259D01*
X825500Y83276750D01*
X4452320Y83276750D01*
X4452320Y82186511D01*
X4548993Y81953122D01*
X4727621Y81774493D01*
X4961010Y81677820D01*
X6051250Y81677820D01*
X6210000Y81836570D01*
X6210000Y83435500D01*
X6464000Y83435500D01*
X6464000Y81836570D01*
X6622750Y81677820D01*
X7712990Y81677820D01*
X7946379Y81774493D01*
X8125007Y81953122D01*
X8221680Y82186511D01*
X8221680Y83276750D01*
X8062930Y83435500D01*
X6464000Y83435500D01*
X6210000Y83435500D01*
X4611070Y83435500D01*
X4452320Y83276750D01*
X825500Y83276750D01*
X825500Y84938489D01*
X4452320Y84938489D01*
X4452320Y83848250D01*
X4611070Y83689500D01*
X6210000Y83689500D01*
X6210000Y85288430D01*
X6464000Y85288430D01*
X6464000Y83689500D01*
X8062930Y83689500D01*
X8221680Y83848250D01*
X8221680Y84938489D01*
X8125007Y85171878D01*
X7946379Y85350507D01*
X7712990Y85447180D01*
X6622750Y85447180D01*
X6464000Y85288430D01*
X6210000Y85288430D01*
X6051250Y85447180D01*
X4961010Y85447180D01*
X4727621Y85350507D01*
X4548993Y85171878D01*
X4452320Y84938489D01*
X825500Y84938489D01*
X825500Y88269259D01*
X4451994Y88269259D01*
X4738314Y87576309D01*
X5268021Y87045678D01*
X5960469Y86758148D01*
X6710241Y86757494D01*
X7403191Y87043814D01*
X7933822Y87573521D01*
X8221352Y88265969D01*
X8221758Y88731206D01*
X9648023Y90157472D01*
X9648026Y90157474D01*
X9923327Y90569492D01*
X10020000Y91055500D01*
X10020000Y93193393D01*
X10432498Y93193393D01*
X10533120Y92924878D01*
X11148642Y92695684D01*
X11805019Y92719486D01*
X12300880Y92924878D01*
X12401502Y93193393D01*
X11417000Y94177895D01*
X10432498Y93193393D01*
X10020000Y93193393D01*
X10020000Y93460271D01*
X10252893Y93372998D01*
X11237395Y94357500D01*
X11223253Y94371642D01*
X11402858Y94551247D01*
X11417000Y94537105D01*
X11431143Y94551247D01*
X11610748Y94371642D01*
X11596605Y94357500D01*
X12581107Y93372998D01*
X12849622Y93473620D01*
X13078816Y94089142D01*
X13055014Y94745519D01*
X12849622Y95241380D01*
X12698746Y95297919D01*
X12884441Y95417410D01*
X13029431Y95629610D01*
X13080440Y95881500D01*
X13080440Y97913500D01*
X13036162Y98148817D01*
X12897090Y98364941D01*
X12684890Y98509931D01*
X12433000Y98560940D01*
X10401000Y98560940D01*
X10165683Y98516662D01*
X9949559Y98377590D01*
X9806011Y98167500D01*
X9639005Y98167500D01*
X9639000Y98167501D01*
X9152992Y98070827D01*
X8740974Y97795526D01*
X7851974Y96906526D01*
X7576673Y96494508D01*
X7479999Y96008500D01*
X7480000Y96008495D01*
X7480000Y91581551D01*
X6425552Y90527103D01*
X5963759Y90527506D01*
X5270809Y90241186D01*
X4740178Y89711479D01*
X4452648Y89019031D01*
X4451994Y88269259D01*
X825500Y88269259D01*
X825500Y94738685D01*
X2851630Y94738685D01*
X3175980Y93953700D01*
X3776041Y93352591D01*
X4560459Y93026872D01*
X5409815Y93026130D01*
X6194800Y93350480D01*
X6795909Y93950541D01*
X7121628Y94734959D01*
X7122370Y95584315D01*
X6798020Y96369300D01*
X6197959Y96970409D01*
X5413541Y97296128D01*
X4564185Y97296870D01*
X3779200Y96972520D01*
X3178091Y96372459D01*
X2852372Y95588041D01*
X2851630Y94738685D01*
X825500Y94738685D01*
X825500Y94918697D01*
X1158206Y96591323D01*
X2059618Y97940382D01*
X3408678Y98841794D01*
X5081303Y99174500D01*
X14212428Y99174500D01*
X14149314Y99148422D01*
X14149314Y99148422D01*
G37*
X14149314Y99148422D02*
X13612961Y98613005D01*
X13322332Y97913090D01*
X13321670Y97155235D01*
X13611078Y96454814D01*
X14146495Y95918461D01*
X14719000Y95680737D01*
X14719000Y93976505D01*
X14718999Y93976500D01*
X14719000Y93976495D01*
X14719000Y87359736D01*
X14442244Y87082980D01*
X14499833Y87372500D01*
X14391559Y87916829D01*
X14083222Y88378289D01*
X13687801Y88642500D01*
X14083222Y88906711D01*
X14391559Y89368171D01*
X14499833Y89912500D01*
X14391559Y90456829D01*
X14083222Y90918289D01*
X13621762Y91226626D01*
X13077433Y91334900D01*
X12296567Y91334900D01*
X11752238Y91226626D01*
X11290778Y90918289D01*
X10982441Y90456829D01*
X10874167Y89912500D01*
X10982441Y89368171D01*
X11290778Y88906711D01*
X11686199Y88642500D01*
X11290778Y88378289D01*
X10982441Y87916829D01*
X10874167Y87372500D01*
X10982441Y86828171D01*
X11290778Y86366711D01*
X11686199Y86102500D01*
X11290778Y85838289D01*
X10982441Y85376829D01*
X10874167Y84832500D01*
X10982441Y84288171D01*
X11290778Y83826711D01*
X11686199Y83562500D01*
X11290778Y83298289D01*
X10982441Y82836829D01*
X10874167Y82292500D01*
X10982441Y81748171D01*
X11290778Y81286711D01*
X11752238Y80978374D01*
X12296567Y80870100D01*
X13077433Y80870100D01*
X13621762Y80978374D01*
X14083222Y81286711D01*
X14391559Y81748171D01*
X14499833Y82292500D01*
X14391559Y82836829D01*
X14229145Y83079900D01*
X18516560Y83079900D01*
X18516560Y81505100D01*
X18560838Y81269783D01*
X18699910Y81053659D01*
X18912110Y80908669D01*
X19164000Y80857660D01*
X21450000Y80857660D01*
X21685317Y80901938D01*
X21901441Y81041010D01*
X22046431Y81253210D01*
X22097440Y81505100D01*
X22097440Y82673500D01*
X24358560Y82673500D01*
X24358560Y80641500D01*
X24402838Y80406183D01*
X24541910Y80190059D01*
X24754110Y80045069D01*
X25006000Y79994060D01*
X27038000Y79994060D01*
X27273317Y80038338D01*
X27489441Y80177410D01*
X27634431Y80389610D01*
X27685440Y80641500D01*
X27685440Y82673500D01*
X27641162Y82908817D01*
X27502090Y83124941D01*
X27306943Y83258279D01*
X27454622Y83313620D01*
X27683816Y83929142D01*
X27660014Y84585519D01*
X27454622Y85081380D01*
X27186107Y85182002D01*
X26201605Y84197500D01*
X26215748Y84183357D01*
X26036143Y84003752D01*
X26022000Y84017895D01*
X26007858Y84003752D01*
X25828253Y84183357D01*
X25842395Y84197500D01*
X24857893Y85182002D01*
X24589378Y85081380D01*
X24360184Y84465858D01*
X24383986Y83809481D01*
X24589378Y83313620D01*
X24740254Y83257081D01*
X24554559Y83137590D01*
X24409569Y82925390D01*
X24358560Y82673500D01*
X22097440Y82673500D01*
X22097440Y83079900D01*
X22053162Y83315217D01*
X21914090Y83531341D01*
X21701890Y83676331D01*
X21508610Y83715471D01*
X21758191Y83916514D01*
X22025327Y84405504D01*
X22042010Y84485440D01*
X21919852Y84705500D01*
X20434000Y84705500D01*
X20434000Y84685500D01*
X20180000Y84685500D01*
X20180000Y84705500D01*
X18694148Y84705500D01*
X18571990Y84485440D01*
X18588673Y84405504D01*
X18855809Y83916514D01*
X19104544Y83716153D01*
X18928683Y83683062D01*
X18712559Y83543990D01*
X18567569Y83331790D01*
X18516560Y83079900D01*
X14229145Y83079900D01*
X14083222Y83298289D01*
X13687801Y83562500D01*
X14083995Y83562500D01*
X14084000Y83562499D01*
X14570008Y83659173D01*
X14982026Y83934474D01*
X16887023Y85839472D01*
X16887026Y85839474D01*
X17162327Y86251492D01*
X17175100Y86315706D01*
X17259001Y86737500D01*
X17259000Y86737505D01*
X17259000Y87025440D01*
X18571990Y87025440D01*
X18588673Y86945504D01*
X18855809Y86456514D01*
X19289738Y86106975D01*
X19304990Y86102500D01*
X19289738Y86098025D01*
X18855809Y85748486D01*
X18588673Y85259496D01*
X18571990Y85179560D01*
X18694148Y84959500D01*
X20180000Y84959500D01*
X20180000Y87245500D01*
X20434000Y87245500D01*
X20434000Y84959500D01*
X21919852Y84959500D01*
X22042010Y85179560D01*
X22025327Y85259496D01*
X21969544Y85361607D01*
X25037498Y85361607D01*
X26022000Y84377105D01*
X27006502Y85361607D01*
X26905880Y85630122D01*
X26290358Y85859316D01*
X25633981Y85835514D01*
X25138120Y85630122D01*
X25037498Y85361607D01*
X21969544Y85361607D01*
X21758191Y85748486D01*
X21324262Y86098025D01*
X21309010Y86102500D01*
X21324262Y86106975D01*
X21758191Y86456514D01*
X22025327Y86945504D01*
X22042010Y87025440D01*
X21919852Y87245500D01*
X20434000Y87245500D01*
X20180000Y87245500D01*
X18694148Y87245500D01*
X18571990Y87025440D01*
X17259000Y87025440D01*
X17259000Y89565440D01*
X18571990Y89565440D01*
X18588673Y89485504D01*
X18855809Y88996514D01*
X19289738Y88646975D01*
X19304990Y88642500D01*
X19289738Y88638025D01*
X18855809Y88288486D01*
X18588673Y87799496D01*
X18571990Y87719560D01*
X18694148Y87499500D01*
X20180000Y87499500D01*
X20180000Y89785500D01*
X20434000Y89785500D01*
X20434000Y87499500D01*
X21919852Y87499500D01*
X22042010Y87719560D01*
X22025327Y87799496D01*
X21758191Y88288486D01*
X21724610Y88315537D01*
X25005714Y88315537D01*
X25256534Y87708505D01*
X25720563Y87243666D01*
X26327155Y86991787D01*
X26983963Y86991214D01*
X27215178Y87086750D01*
X37071000Y87086750D01*
X37071000Y86230190D01*
X37167673Y85996801D01*
X37346302Y85818173D01*
X37579691Y85721500D01*
X38436250Y85721500D01*
X38595000Y85880250D01*
X38595000Y87245500D01*
X37229750Y87245500D01*
X37071000Y87086750D01*
X27215178Y87086750D01*
X27590995Y87242034D01*
X28055834Y87706063D01*
X28307713Y88312655D01*
X28308286Y88969463D01*
X28057466Y89576495D01*
X27593437Y90041334D01*
X26986845Y90293213D01*
X26330037Y90293786D01*
X25723005Y90042966D01*
X25258166Y89578937D01*
X25006287Y88972345D01*
X25005714Y88315537D01*
X21724610Y88315537D01*
X21324262Y88638025D01*
X21309010Y88642500D01*
X21324262Y88646975D01*
X21758191Y88996514D01*
X22025327Y89485504D01*
X22042010Y89565440D01*
X21919852Y89785500D01*
X20434000Y89785500D01*
X20180000Y89785500D01*
X18694148Y89785500D01*
X18571990Y89565440D01*
X17259000Y89565440D01*
X17259000Y90259560D01*
X18571990Y90259560D01*
X18694148Y90039500D01*
X20180000Y90039500D01*
X20180000Y91334900D01*
X20434000Y91334900D01*
X20434000Y90039500D01*
X21919852Y90039500D01*
X22042010Y90259560D01*
X22025327Y90339496D01*
X22014230Y90359810D01*
X38147000Y90359810D01*
X38147000Y89769250D01*
X38305750Y89610500D01*
X39405000Y89610500D01*
X39405000Y90709750D01*
X39246250Y90868500D01*
X38655691Y90868500D01*
X38422302Y90771827D01*
X38243673Y90593199D01*
X38147000Y90359810D01*
X22014230Y90359810D01*
X21758191Y90828486D01*
X21324262Y91178025D01*
X20789600Y91334900D01*
X20434000Y91334900D01*
X20180000Y91334900D01*
X19824400Y91334900D01*
X19289738Y91178025D01*
X18855809Y90828486D01*
X18588673Y90339496D01*
X18571990Y90259560D01*
X17259000Y90259560D01*
X17259000Y92452500D01*
X25591953Y92452500D01*
X25720563Y92323666D01*
X26327155Y92071787D01*
X26983963Y92071214D01*
X27590995Y92322034D01*
X28055834Y92786063D01*
X28307713Y93392655D01*
X28308286Y94049463D01*
X28057466Y94656495D01*
X27975420Y94738685D01*
X42851630Y94738685D01*
X43175980Y93953700D01*
X43776041Y93352591D01*
X44560459Y93026872D01*
X45409815Y93026130D01*
X46194800Y93350480D01*
X46795909Y93950541D01*
X47121628Y94734959D01*
X47122370Y95584315D01*
X46798020Y96369300D01*
X46197959Y96970409D01*
X45413541Y97296128D01*
X44564185Y97296870D01*
X43779200Y96972520D01*
X43178091Y96372459D01*
X42852372Y95588041D01*
X42851630Y94738685D01*
X27975420Y94738685D01*
X27593437Y95121334D01*
X26986845Y95373213D01*
X26330037Y95373786D01*
X25723005Y95122966D01*
X25592311Y94992500D01*
X17259000Y94992500D01*
X17259000Y96184723D01*
X23456828Y96184723D01*
X23588520Y95889843D01*
X24296036Y95618239D01*
X25053632Y95638064D01*
X25661480Y95889843D01*
X25793172Y96184723D01*
X24625000Y97352895D01*
X23456828Y96184723D01*
X17259000Y96184723D01*
X17259000Y97532500D01*
X17193565Y97861464D01*
X22710739Y97861464D01*
X22730564Y97103868D01*
X22982343Y96496020D01*
X23277223Y96364328D01*
X24445395Y97532500D01*
X24804605Y97532500D01*
X25972777Y96364328D01*
X26267657Y96496020D01*
X26539261Y97203536D01*
X26519436Y97961132D01*
X26267657Y98568980D01*
X25972777Y98700672D01*
X24804605Y97532500D01*
X24445395Y97532500D01*
X23277223Y98700672D01*
X22982343Y98568980D01*
X22710739Y97861464D01*
X17193565Y97861464D01*
X17162327Y98018508D01*
X16965980Y98312363D01*
X16842922Y98610186D01*
X16307505Y99146539D01*
X16240167Y99174500D01*
X23588227Y99174500D01*
X23456828Y98880277D01*
X24625000Y97712105D01*
X25793172Y98880277D01*
X25661773Y99174500D01*
X44918697Y99174500D01*
X46591323Y98841794D01*
X47940382Y97940382D01*
X48841794Y96591322D01*
X49174500Y94918697D01*
X49174500Y28859342D01*
X49012466Y29251495D01*
X48548437Y29716334D01*
X47941845Y29968213D01*
X47285037Y29968786D01*
X46678005Y29717966D01*
X46213166Y29253937D01*
X45961287Y28647345D01*
X45960714Y27990537D01*
X46211534Y27383505D01*
X46634366Y26959935D01*
X46627498Y26941607D01*
X47612000Y25957105D01*
X48596502Y26941607D01*
X48589453Y26960417D01*
X49010834Y27381063D01*
X49174500Y27775215D01*
X49174500Y26347826D01*
X49044622Y26661380D01*
X48776107Y26762002D01*
X47791605Y25777500D01*
X48776107Y24792998D01*
X49044622Y24893620D01*
X49174500Y25242420D01*
X49174500Y5081303D01*
X48841794Y3408678D01*
X47940382Y2059618D01*
X46591323Y1158206D01*
X44918697Y825500D01*
X40954992Y825500D01*
X41144261Y1318536D01*
X41124436Y2076132D01*
X40872657Y2683980D01*
X40577777Y2815672D01*
X39409605Y1647500D01*
X39423748Y1633357D01*
X39244143Y1453752D01*
X39230000Y1467895D01*
X39215858Y1453752D01*
X39036253Y1633357D01*
X39050395Y1647500D01*
X37882223Y2815672D01*
X37587343Y2683980D01*
X37315739Y1976464D01*
X37335564Y1218868D01*
X37498502Y825500D01*
X31553379Y825500D01*
X31736668Y1266910D01*
X31737330Y2024765D01*
X31447922Y2725186D01*
X31178303Y2995277D01*
X38061828Y2995277D01*
X39230000Y1827105D01*
X40398172Y2995277D01*
X40314730Y3182118D01*
X40380019Y3184486D01*
X40875880Y3389878D01*
X40976502Y3658393D01*
X39992000Y4642895D01*
X39007498Y3658393D01*
X39048713Y3548409D01*
X38801368Y3541936D01*
X38193520Y3290157D01*
X38061828Y2995277D01*
X31178303Y2995277D01*
X30912505Y3261539D01*
X30212590Y3552168D01*
X29454735Y3552830D01*
X28754314Y3263422D01*
X28217961Y2728005D01*
X27927332Y2028090D01*
X27926670Y1270235D01*
X28110431Y825500D01*
X24478004Y825500D01*
X24951851Y1298520D01*
X25216518Y1935909D01*
X25217120Y2626063D01*
X24953566Y3263913D01*
X24465980Y3752351D01*
X23828591Y4017018D01*
X23138437Y4017620D01*
X22500587Y3754066D01*
X22211924Y3465907D01*
X21925980Y3752351D01*
X21288591Y4017018D01*
X20598437Y4017620D01*
X19960587Y3754066D01*
X19671924Y3465907D01*
X19385980Y3752351D01*
X18748591Y4017018D01*
X18058437Y4017620D01*
X17420587Y3754066D01*
X17131924Y3465907D01*
X16845980Y3752351D01*
X16208591Y4017018D01*
X15518437Y4017620D01*
X14880587Y3754066D01*
X14591924Y3465907D01*
X14478882Y3579146D01*
X16611236Y5711500D01*
X19926000Y5711500D01*
X20266206Y5779171D01*
X20554618Y5971882D01*
X24999618Y10416882D01*
X25192329Y10705294D01*
X25260000Y11045500D01*
X25260000Y26158500D01*
X25192329Y26498706D01*
X24999618Y26787118D01*
X21958000Y29828736D01*
X21958000Y29920502D01*
X22003965Y29851711D01*
X22091382Y29720882D01*
X29203382Y22608882D01*
X29491794Y22416171D01*
X29832000Y22348500D01*
X31532742Y22348500D01*
X31610778Y22231711D01*
X32006199Y21967500D01*
X31610778Y21703289D01*
X31302441Y21241829D01*
X31194167Y20697500D01*
X31302441Y20153171D01*
X31610778Y19691711D01*
X32006199Y19427500D01*
X31610778Y19163289D01*
X31302441Y18701829D01*
X31194167Y18157500D01*
X31302441Y17613171D01*
X31610778Y17151711D01*
X32006199Y16887500D01*
X31610778Y16623289D01*
X31495440Y16450673D01*
X31495440Y16633500D01*
X31451162Y16868817D01*
X31312090Y17084941D01*
X31099890Y17229931D01*
X30848000Y17280940D01*
X28816000Y17280940D01*
X28580683Y17236662D01*
X28364559Y17097590D01*
X28219569Y16885390D01*
X28168560Y16633500D01*
X28168560Y14601500D01*
X28180947Y14535669D01*
X28168560Y14474500D01*
X28168560Y12442500D01*
X28212838Y12207183D01*
X28351910Y11991059D01*
X28564110Y11846069D01*
X28816000Y11795060D01*
X30848000Y11795060D01*
X31083317Y11839338D01*
X31299441Y11978410D01*
X31444431Y12190610D01*
X31464643Y12290418D01*
X31610778Y12071711D01*
X32006199Y11807500D01*
X31610778Y11543289D01*
X31302441Y11081829D01*
X31194167Y10537500D01*
X31302441Y9993171D01*
X31610778Y9531711D01*
X32072238Y9223374D01*
X32616567Y9115100D01*
X33397433Y9115100D01*
X33941762Y9223374D01*
X34150000Y9362514D01*
X34150000Y8873736D01*
X33672700Y8396436D01*
X33308437Y8761334D01*
X32701845Y9013213D01*
X32045037Y9013786D01*
X31438005Y8762966D01*
X30973166Y8298937D01*
X30721287Y7692345D01*
X30720714Y7035537D01*
X30971534Y6428505D01*
X31307132Y6092321D01*
X30973166Y5758937D01*
X30721287Y5152345D01*
X30720714Y4495537D01*
X30971534Y3888505D01*
X31435563Y3423666D01*
X32042155Y3171787D01*
X32698963Y3171214D01*
X33305995Y3422034D01*
X33770834Y3886063D01*
X34022713Y4492655D01*
X34023234Y5090858D01*
X38330184Y5090858D01*
X38353986Y4434481D01*
X38559378Y3938620D01*
X38827893Y3837998D01*
X39812395Y4822500D01*
X40171605Y4822500D01*
X41156107Y3837998D01*
X41424622Y3938620D01*
X41653816Y4554142D01*
X41647124Y4738685D01*
X42851630Y4738685D01*
X43175980Y3953700D01*
X43776041Y3352591D01*
X44560459Y3026872D01*
X45409815Y3026130D01*
X46194800Y3350480D01*
X46795909Y3950541D01*
X47121628Y4734959D01*
X47122370Y5584315D01*
X46798020Y6369300D01*
X46197959Y6970409D01*
X45413541Y7296128D01*
X44564185Y7296870D01*
X43779200Y6972520D01*
X43178091Y6372459D01*
X42852372Y5588041D01*
X42851630Y4738685D01*
X41647124Y4738685D01*
X41630014Y5210519D01*
X41424622Y5706380D01*
X41156107Y5807002D01*
X40171605Y4822500D01*
X39812395Y4822500D01*
X38827893Y5807002D01*
X38559378Y5706380D01*
X38330184Y5090858D01*
X34023234Y5090858D01*
X34023286Y5149463D01*
X33772466Y5756495D01*
X33436868Y6092679D01*
X33770834Y6426063D01*
X33790532Y6473500D01*
X33896000Y6473500D01*
X34236206Y6541171D01*
X34524618Y6733882D01*
X34826273Y7035537D01*
X38340714Y7035537D01*
X38591534Y6428505D01*
X39014366Y6004935D01*
X39007498Y5986607D01*
X39992000Y5002105D01*
X40976502Y5986607D01*
X40969453Y6005417D01*
X41390834Y6426063D01*
X41642713Y7032655D01*
X41643286Y7689463D01*
X41392466Y8296495D01*
X40928437Y8761334D01*
X40321845Y9013213D01*
X39665037Y9013786D01*
X39058005Y8762966D01*
X38593166Y8298937D01*
X38341287Y7692345D01*
X38340714Y7035537D01*
X34826273Y7035537D01*
X35667618Y7876882D01*
X35743948Y7991118D01*
X35860329Y8165294D01*
X35928000Y8505500D01*
X35928000Y12156750D01*
X41917320Y12156750D01*
X41917320Y11066511D01*
X42013993Y10833122D01*
X42192621Y10654493D01*
X42426010Y10557820D01*
X43516250Y10557820D01*
X43675000Y10716570D01*
X43675000Y12315500D01*
X43929000Y12315500D01*
X43929000Y10716570D01*
X44087750Y10557820D01*
X45177990Y10557820D01*
X45411379Y10654493D01*
X45590007Y10833122D01*
X45686680Y11066511D01*
X45686680Y12156750D01*
X45527930Y12315500D01*
X43929000Y12315500D01*
X43675000Y12315500D01*
X42076070Y12315500D01*
X41917320Y12156750D01*
X35928000Y12156750D01*
X35928000Y13818489D01*
X41917320Y13818489D01*
X41917320Y12728250D01*
X42076070Y12569500D01*
X43675000Y12569500D01*
X43675000Y14168430D01*
X43929000Y14168430D01*
X43929000Y12569500D01*
X45527930Y12569500D01*
X45686680Y12728250D01*
X45686680Y13818489D01*
X45590007Y14051878D01*
X45411379Y14230507D01*
X45177990Y14327180D01*
X44087750Y14327180D01*
X43929000Y14168430D01*
X43675000Y14168430D01*
X43516250Y14327180D01*
X42426010Y14327180D01*
X42192621Y14230507D01*
X42013993Y14051878D01*
X41917320Y13818489D01*
X35928000Y13818489D01*
X35928000Y17149259D01*
X41916994Y17149259D01*
X42203314Y16456309D01*
X42733021Y15925678D01*
X43425469Y15638148D01*
X44175241Y15637494D01*
X44868191Y15923814D01*
X45398822Y16453521D01*
X45686352Y17145969D01*
X45687006Y17895741D01*
X45400686Y18588691D01*
X44870979Y19119322D01*
X44178531Y19406852D01*
X43428759Y19407506D01*
X42735809Y19121186D01*
X42205178Y18591479D01*
X41917648Y17899031D01*
X41916994Y17149259D01*
X35928000Y17149259D01*
X35928000Y19173500D01*
X35860329Y19513706D01*
X35667618Y19802118D01*
X34811936Y20657800D01*
X34819833Y20697500D01*
X34711559Y21241829D01*
X34403222Y21703289D01*
X34007801Y21967500D01*
X34393529Y22225235D01*
X35546670Y22225235D01*
X35836078Y21524814D01*
X36371495Y20988461D01*
X37071410Y20697832D01*
X37829265Y20697170D01*
X38529686Y20986578D01*
X38798299Y21254723D01*
X45681828Y21254723D01*
X45813520Y20959843D01*
X46521036Y20688239D01*
X47278632Y20708064D01*
X47886480Y20959843D01*
X48018172Y21254723D01*
X46850000Y22422895D01*
X45681828Y21254723D01*
X38798299Y21254723D01*
X39066039Y21521995D01*
X39356668Y22221910D01*
X39357287Y22931464D01*
X44935739Y22931464D01*
X44955564Y22173868D01*
X45207343Y21566020D01*
X45502223Y21434328D01*
X46670395Y22602500D01*
X47029605Y22602500D01*
X48197777Y21434328D01*
X48492657Y21566020D01*
X48764261Y22273536D01*
X48744436Y23031132D01*
X48492657Y23638980D01*
X48197777Y23770672D01*
X47029605Y22602500D01*
X46670395Y22602500D01*
X45502223Y23770672D01*
X45207343Y23638980D01*
X44935739Y22931464D01*
X39357287Y22931464D01*
X39357330Y22979765D01*
X39067922Y23680186D01*
X38798303Y23950277D01*
X45681828Y23950277D01*
X46850000Y22782105D01*
X48018172Y23950277D01*
X47934730Y24137118D01*
X48000019Y24139486D01*
X48495880Y24344878D01*
X48596502Y24613393D01*
X47612000Y25597895D01*
X46627498Y24613393D01*
X46668713Y24503409D01*
X46421368Y24496936D01*
X45813520Y24245157D01*
X45681828Y23950277D01*
X38798303Y23950277D01*
X38532505Y24216539D01*
X37832590Y24507168D01*
X37074735Y24507830D01*
X36374314Y24218422D01*
X35837961Y23683005D01*
X35547332Y22983090D01*
X35546670Y22225235D01*
X34393529Y22225235D01*
X34403222Y22231711D01*
X34711559Y22693171D01*
X34819833Y23237500D01*
X34711559Y23781829D01*
X34403222Y24243289D01*
X34007801Y24507500D01*
X34403222Y24771711D01*
X34711559Y25233171D01*
X34819833Y25777500D01*
X34711559Y26321829D01*
X34403222Y26783289D01*
X34007801Y27047500D01*
X34403222Y27311711D01*
X34711559Y27773171D01*
X34754795Y27990537D01*
X38340714Y27990537D01*
X38591534Y27383505D01*
X38927132Y27047321D01*
X38593166Y26713937D01*
X38341287Y26107345D01*
X38340714Y25450537D01*
X38591534Y24843505D01*
X39055563Y24378666D01*
X39662155Y24126787D01*
X40318963Y24126214D01*
X40925995Y24377034D01*
X41390834Y24841063D01*
X41642713Y25447655D01*
X41643234Y26045858D01*
X45950184Y26045858D01*
X45973986Y25389481D01*
X46179378Y24893620D01*
X46447893Y24792998D01*
X47432395Y25777500D01*
X46447893Y26762002D01*
X46179378Y26661380D01*
X45950184Y26045858D01*
X41643234Y26045858D01*
X41643286Y26104463D01*
X41392466Y26711495D01*
X41056868Y27047679D01*
X41390834Y27381063D01*
X41642713Y27987655D01*
X41643286Y28644463D01*
X41392466Y29251495D01*
X40928437Y29716334D01*
X40321845Y29968213D01*
X39665037Y29968786D01*
X39058005Y29717966D01*
X38593166Y29253937D01*
X38341287Y28647345D01*
X38340714Y27990537D01*
X34754795Y27990537D01*
X34819833Y28317500D01*
X34711559Y28861829D01*
X34403222Y29323289D01*
X34007801Y29587500D01*
X34403222Y29851711D01*
X34711559Y30313171D01*
X34819833Y30857500D01*
X34711559Y31401829D01*
X34403222Y31863289D01*
X34007801Y32127500D01*
X34403222Y32391711D01*
X34711559Y32853171D01*
X34762993Y33111750D01*
X41917320Y33111750D01*
X41917320Y32021511D01*
X42013993Y31788122D01*
X42192621Y31609493D01*
X42426010Y31512820D01*
X43516250Y31512820D01*
X43675000Y31671570D01*
X43675000Y33270500D01*
X43929000Y33270500D01*
X43929000Y31671570D01*
X44087750Y31512820D01*
X45177990Y31512820D01*
X45411379Y31609493D01*
X45590007Y31788122D01*
X45686680Y32021511D01*
X45686680Y33111750D01*
X45527930Y33270500D01*
X43929000Y33270500D01*
X43675000Y33270500D01*
X42076070Y33270500D01*
X41917320Y33111750D01*
X34762993Y33111750D01*
X34819833Y33397500D01*
X34711559Y33941829D01*
X34403222Y34403289D01*
X34007801Y34667500D01*
X34166425Y34773489D01*
X41917320Y34773489D01*
X41917320Y33683250D01*
X42076070Y33524500D01*
X43675000Y33524500D01*
X43675000Y35123430D01*
X43929000Y35123430D01*
X43929000Y33524500D01*
X45527930Y33524500D01*
X45686680Y33683250D01*
X45686680Y34773489D01*
X45590007Y35006878D01*
X45411379Y35185507D01*
X45177990Y35282180D01*
X44087750Y35282180D01*
X43929000Y35123430D01*
X43675000Y35123430D01*
X43516250Y35282180D01*
X42426010Y35282180D01*
X42192621Y35185507D01*
X42013993Y35006878D01*
X41917320Y34773489D01*
X34166425Y34773489D01*
X34403222Y34931711D01*
X34711559Y35393171D01*
X34819833Y35937500D01*
X34711559Y36481829D01*
X34403222Y36943289D01*
X34007801Y37207500D01*
X34403222Y37471711D01*
X34711559Y37933171D01*
X34819833Y38477500D01*
X34711559Y39021829D01*
X34403222Y39483289D01*
X34007801Y39747500D01*
X34403222Y40011711D01*
X34711559Y40473171D01*
X34819833Y41017500D01*
X34711559Y41561829D01*
X34403222Y42023289D01*
X34008170Y42287254D01*
X34024262Y42291975D01*
X34207206Y42439341D01*
X35878446Y42439341D01*
X35971288Y42177412D01*
X36563801Y41958825D01*
X37194861Y41983622D01*
X37662712Y42177412D01*
X37755554Y42439341D01*
X36817000Y43377895D01*
X35878446Y42439341D01*
X34207206Y42439341D01*
X34458191Y42641514D01*
X34725327Y43130504D01*
X34742010Y43210440D01*
X34619852Y43430500D01*
X33134000Y43430500D01*
X33134000Y43410500D01*
X32880000Y43410500D01*
X32880000Y43430500D01*
X32860000Y43430500D01*
X32860000Y43684500D01*
X32880000Y43684500D01*
X32880000Y43704500D01*
X33134000Y43704500D01*
X33134000Y43684500D01*
X34619852Y43684500D01*
X34689906Y43810699D01*
X35218325Y43810699D01*
X35243122Y43179639D01*
X35436912Y42711788D01*
X35698841Y42618946D01*
X36637395Y43557500D01*
X36996605Y43557500D01*
X37935159Y42618946D01*
X38197088Y42711788D01*
X38415675Y43304301D01*
X38390878Y43935361D01*
X38197088Y44403212D01*
X37935159Y44496054D01*
X36996605Y43557500D01*
X36637395Y43557500D01*
X35698841Y44496054D01*
X35436912Y44403212D01*
X35218325Y43810699D01*
X34689906Y43810699D01*
X34742010Y43904560D01*
X34725327Y43984496D01*
X34458191Y44473486D01*
X34207207Y44675659D01*
X35878446Y44675659D01*
X36817000Y43737105D01*
X37755554Y44675659D01*
X37662712Y44937588D01*
X37070199Y45156175D01*
X36439139Y45131378D01*
X35971288Y44937588D01*
X35878446Y44675659D01*
X34207207Y44675659D01*
X34024262Y44823025D01*
X34008170Y44827746D01*
X34403222Y45091711D01*
X34711559Y45553171D01*
X34819833Y46097500D01*
X34711559Y46641829D01*
X34403222Y47103289D01*
X33941762Y47411626D01*
X33397433Y47519900D01*
X32616567Y47519900D01*
X32072238Y47411626D01*
X31737000Y47187628D01*
X31737000Y48108393D01*
X35832498Y48108393D01*
X35933120Y47839878D01*
X36548642Y47610684D01*
X37205019Y47634486D01*
X37700880Y47839878D01*
X37801502Y48108393D01*
X36817000Y49092895D01*
X35832498Y48108393D01*
X31737000Y48108393D01*
X31737000Y50174264D01*
X34391236Y52828500D01*
X35153560Y52828500D01*
X35153560Y50796500D01*
X35197838Y50561183D01*
X35336910Y50345059D01*
X35532057Y50211721D01*
X35384378Y50156380D01*
X35155184Y49540858D01*
X35178986Y48884481D01*
X35384378Y48388620D01*
X35652893Y48287998D01*
X36637395Y49272500D01*
X36623253Y49286642D01*
X36802858Y49466247D01*
X36817000Y49452105D01*
X36831143Y49466247D01*
X37010748Y49286642D01*
X36996605Y49272500D01*
X37981107Y48287998D01*
X38249622Y48388620D01*
X38478816Y49004142D01*
X38455014Y49660519D01*
X38249622Y50156380D01*
X38098746Y50212919D01*
X38222629Y50292635D01*
X38849000Y49666264D01*
X38849000Y40877736D01*
X37755575Y39784311D01*
X37717421Y39822532D01*
X37134159Y40064724D01*
X36502612Y40065275D01*
X35918928Y39824102D01*
X35471968Y39377921D01*
X35229776Y38794659D01*
X35229225Y38163112D01*
X35470398Y37579428D01*
X35916579Y37132468D01*
X36499841Y36890276D01*
X37131388Y36889725D01*
X37715072Y37130898D01*
X38162032Y37577079D01*
X38251961Y37793653D01*
X38334618Y37848882D01*
X38589995Y38104259D01*
X41916994Y38104259D01*
X42203314Y37411309D01*
X42733021Y36880678D01*
X43425469Y36593148D01*
X44175241Y36592494D01*
X44868191Y36878814D01*
X45398822Y37408521D01*
X45686352Y38100969D01*
X45687006Y38850741D01*
X45400686Y39543691D01*
X44870979Y40074322D01*
X44178531Y40361852D01*
X43428759Y40362506D01*
X42735809Y40076186D01*
X42205178Y39546479D01*
X41917648Y38854031D01*
X41916994Y38104259D01*
X38589995Y38104259D01*
X40366618Y39880882D01*
X40489457Y40064724D01*
X40559329Y40169294D01*
X40627000Y40509500D01*
X40627000Y44541750D01*
X44691000Y44541750D01*
X44691000Y43685191D01*
X44787673Y43451802D01*
X44966301Y43273173D01*
X45199690Y43176500D01*
X46056250Y43176500D01*
X46215000Y43335250D01*
X46215000Y44700500D01*
X46469000Y44700500D01*
X46469000Y43335250D01*
X46627750Y43176500D01*
X47484310Y43176500D01*
X47717699Y43273173D01*
X47896327Y43451802D01*
X47993000Y43685191D01*
X47993000Y44541750D01*
X47834250Y44700500D01*
X46469000Y44700500D01*
X46215000Y44700500D01*
X44849750Y44700500D01*
X44691000Y44541750D01*
X40627000Y44541750D01*
X40627000Y45969809D01*
X44691000Y45969809D01*
X44691000Y45113250D01*
X44849750Y44954500D01*
X46215000Y44954500D01*
X46215000Y46319750D01*
X46469000Y46319750D01*
X46469000Y44954500D01*
X47834250Y44954500D01*
X47993000Y45113250D01*
X47993000Y45969809D01*
X47896327Y46203198D01*
X47717699Y46381827D01*
X47484310Y46478500D01*
X46627750Y46478500D01*
X46469000Y46319750D01*
X46215000Y46319750D01*
X46056250Y46478500D01*
X45199690Y46478500D01*
X44966301Y46381827D01*
X44787673Y46203198D01*
X44691000Y45969809D01*
X40627000Y45969809D01*
X40627000Y49161750D01*
X42846000Y49161750D01*
X42846000Y48571191D01*
X42942673Y48337802D01*
X43121301Y48159173D01*
X43354690Y48062500D01*
X43945250Y48062500D01*
X44104000Y48221250D01*
X44104000Y49320500D01*
X43004750Y49320500D01*
X42846000Y49161750D01*
X40627000Y49161750D01*
X40627000Y50034500D01*
X40559329Y50374706D01*
X40366618Y50663118D01*
X38588618Y52441118D01*
X38480440Y52513400D01*
X38480440Y52828500D01*
X38436162Y53063817D01*
X38297090Y53279941D01*
X38084890Y53424931D01*
X37833000Y53475940D01*
X35801000Y53475940D01*
X35565683Y53431662D01*
X35349559Y53292590D01*
X35204569Y53080390D01*
X35153560Y52828500D01*
X34391236Y52828500D01*
X36683618Y55120882D01*
X36718586Y55173215D01*
X42845760Y55173215D01*
X43056169Y54663985D01*
X43272313Y54447464D01*
X43057539Y54233064D01*
X42846241Y53724202D01*
X42845760Y53173215D01*
X43056169Y52663985D01*
X43272313Y52447464D01*
X43057539Y52233064D01*
X42846241Y51724202D01*
X42845760Y51173215D01*
X43054207Y50668733D01*
X42942673Y50557198D01*
X42846000Y50323809D01*
X42846000Y49733250D01*
X43004750Y49574500D01*
X44104000Y49574500D01*
X44104000Y49594500D01*
X44358000Y49594500D01*
X44358000Y49574500D01*
X44378000Y49574500D01*
X44378000Y49320500D01*
X44358000Y49320500D01*
X44358000Y48221250D01*
X44516750Y48062500D01*
X45107310Y48062500D01*
X45340699Y48159173D01*
X45519327Y48337802D01*
X45563019Y48443284D01*
X46012155Y48256787D01*
X46668963Y48256214D01*
X47275995Y48507034D01*
X47740834Y48971063D01*
X47992713Y49577655D01*
X47993286Y50234463D01*
X47742466Y50841495D01*
X47278437Y51306334D01*
X46671845Y51558213D01*
X46015037Y51558786D01*
X45615954Y51393888D01*
X45616240Y51721785D01*
X45405831Y52231015D01*
X45189687Y52447536D01*
X45404461Y52661936D01*
X45615759Y53170798D01*
X45616047Y53501265D01*
X46012155Y53336787D01*
X46668963Y53336214D01*
X47275995Y53587034D01*
X47740834Y54051063D01*
X47992713Y54657655D01*
X47993286Y55314463D01*
X47742466Y55921495D01*
X47278437Y56386334D01*
X46671845Y56638213D01*
X46015037Y56638786D01*
X45408005Y56387966D01*
X45328441Y56308540D01*
X45016564Y56620961D01*
X44507702Y56832259D01*
X43956715Y56832740D01*
X43447485Y56622331D01*
X43057539Y56233064D01*
X42846241Y55724202D01*
X42845760Y55173215D01*
X36718586Y55173215D01*
X36876329Y55409294D01*
X36944000Y55749500D01*
X36944000Y59740537D01*
X44690714Y59740537D01*
X44941534Y59133505D01*
X45405563Y58668666D01*
X46012155Y58416787D01*
X46668963Y58416214D01*
X47275995Y58667034D01*
X47740834Y59131063D01*
X47992713Y59737655D01*
X47993286Y60394463D01*
X47742466Y61001495D01*
X47278437Y61466334D01*
X46671845Y61718213D01*
X46015037Y61718786D01*
X45408005Y61467966D01*
X44943166Y61003937D01*
X44691287Y60397345D01*
X44690714Y59740537D01*
X36944000Y59740537D01*
X36944000Y65078574D01*
X37236332Y64957187D01*
X37665784Y64956813D01*
X38062689Y65120811D01*
X38089425Y65147500D01*
X45326000Y65147500D01*
X45666206Y65215171D01*
X45954618Y65407882D01*
X47224618Y66677882D01*
X47295619Y66784142D01*
X47417329Y66966294D01*
X47485000Y67306500D01*
X47485000Y68400675D01*
X47740834Y68656063D01*
X47992713Y69262655D01*
X47993286Y69919463D01*
X47742466Y70526495D01*
X47278437Y70991334D01*
X46815721Y71183471D01*
X46916759Y71426798D01*
X46917240Y71977785D01*
X46706831Y72487015D01*
X46317564Y72876961D01*
X45808702Y73088259D01*
X45257715Y73088740D01*
X44748485Y72878331D01*
X44531964Y72662187D01*
X44317564Y72876961D01*
X43808702Y73088259D01*
X43257715Y73088740D01*
X42748485Y72878331D01*
X42531964Y72662187D01*
X42317564Y72876961D01*
X41808702Y73088259D01*
X41257715Y73088740D01*
X40753233Y72880293D01*
X40641698Y72991827D01*
X40408309Y73088500D01*
X39817750Y73088500D01*
X39659000Y72929750D01*
X39659000Y71830500D01*
X39679000Y71830500D01*
X39679000Y71576500D01*
X39659000Y71576500D01*
X39659000Y71556500D01*
X39405000Y71556500D01*
X39405000Y71576500D01*
X38305750Y71576500D01*
X38147000Y71417750D01*
X38147000Y71243500D01*
X37579691Y71243500D01*
X37346302Y71146827D01*
X37167673Y70968199D01*
X37071000Y70734810D01*
X37071000Y69878250D01*
X37229750Y69719500D01*
X38595000Y69719500D01*
X38595000Y69739500D01*
X38849000Y69739500D01*
X38849000Y69719500D01*
X38869000Y69719500D01*
X38869000Y69465500D01*
X38849000Y69465500D01*
X38849000Y68100250D01*
X39007750Y67941500D01*
X39864309Y67941500D01*
X40097698Y68038173D01*
X40276327Y68216801D01*
X40283993Y68235308D01*
X40325563Y68193666D01*
X40932155Y67941787D01*
X41588963Y67941214D01*
X42195995Y68192034D01*
X42532179Y68527632D01*
X42865563Y68193666D01*
X43472155Y67941787D01*
X44128963Y67941214D01*
X44735995Y68192034D01*
X45072179Y68527632D01*
X45405563Y68193666D01*
X45707000Y68068498D01*
X45707000Y67674736D01*
X44957764Y66925500D01*
X38089863Y66925500D01*
X38064286Y66951122D01*
X37667668Y67115813D01*
X37238216Y67116187D01*
X36944000Y66994619D01*
X36944000Y69306750D01*
X37071000Y69306750D01*
X37071000Y68450190D01*
X37167673Y68216801D01*
X37346302Y68038173D01*
X37579691Y67941500D01*
X38436250Y67941500D01*
X38595000Y68100250D01*
X38595000Y69465500D01*
X37229750Y69465500D01*
X37071000Y69306750D01*
X36944000Y69306750D01*
X36944000Y72579810D01*
X38147000Y72579810D01*
X38147000Y71989250D01*
X38305750Y71830500D01*
X39405000Y71830500D01*
X39405000Y72929750D01*
X39246250Y73088500D01*
X38655691Y73088500D01*
X38422302Y72991827D01*
X38243673Y72813199D01*
X38147000Y72579810D01*
X36944000Y72579810D01*
X36944000Y74222574D01*
X37236332Y74101187D01*
X37665784Y74100813D01*
X38062689Y74264811D01*
X38089425Y74291500D01*
X44437000Y74291500D01*
X44777206Y74359171D01*
X45065618Y74551882D01*
X46970618Y76456882D01*
X47163329Y76745294D01*
X47226220Y77061467D01*
X47275995Y77082034D01*
X47740834Y77546063D01*
X47992713Y78152655D01*
X47993286Y78809463D01*
X47742466Y79416495D01*
X47278437Y79881334D01*
X46815721Y80073471D01*
X46916759Y80316798D01*
X46917240Y80867785D01*
X46706831Y81377015D01*
X46317564Y81766961D01*
X45808702Y81978259D01*
X45257715Y81978740D01*
X44748485Y81768331D01*
X44531964Y81552187D01*
X44317564Y81766961D01*
X43956366Y81916943D01*
X44269206Y81979171D01*
X44557618Y82171882D01*
X46970618Y84584882D01*
X47163329Y84873294D01*
X47231000Y85213500D01*
X47231000Y85953442D01*
X47275995Y85972034D01*
X47740834Y86436063D01*
X47992713Y87042655D01*
X47993286Y87699463D01*
X47742466Y88306495D01*
X47278437Y88771334D01*
X46815721Y88963471D01*
X46916759Y89206798D01*
X46917240Y89757785D01*
X46706831Y90267015D01*
X46317564Y90656961D01*
X45808702Y90868259D01*
X45257715Y90868740D01*
X44748485Y90658331D01*
X44531964Y90442187D01*
X44317564Y90656961D01*
X43808702Y90868259D01*
X43257715Y90868740D01*
X42748485Y90658331D01*
X42531964Y90442187D01*
X42317564Y90656961D01*
X41808702Y90868259D01*
X41257715Y90868740D01*
X40753233Y90660293D01*
X40641698Y90771827D01*
X40408309Y90868500D01*
X39817750Y90868500D01*
X39659000Y90709750D01*
X39659000Y89610500D01*
X39679000Y89610500D01*
X39679000Y89356500D01*
X39659000Y89356500D01*
X39659000Y89336500D01*
X39405000Y89336500D01*
X39405000Y89356500D01*
X38305750Y89356500D01*
X38147000Y89197750D01*
X38147000Y89023500D01*
X37579691Y89023500D01*
X37346302Y88926827D01*
X37167673Y88748199D01*
X37071000Y88514810D01*
X37071000Y87658250D01*
X37229750Y87499500D01*
X38595000Y87499500D01*
X38595000Y87519500D01*
X38849000Y87519500D01*
X38849000Y87499500D01*
X38869000Y87499500D01*
X38869000Y87245500D01*
X38849000Y87245500D01*
X38849000Y85880250D01*
X39007750Y85721500D01*
X39864309Y85721500D01*
X40097698Y85818173D01*
X40276327Y85996801D01*
X40283993Y86015308D01*
X40325563Y85973666D01*
X40932155Y85721787D01*
X41588963Y85721214D01*
X42195995Y85972034D01*
X42532179Y86307632D01*
X42704387Y86135123D01*
X41782764Y85213500D01*
X36944000Y85213500D01*
X36603794Y85145829D01*
X36324933Y84959500D01*
X36315382Y84953118D01*
X34537382Y83175118D01*
X34344671Y82886706D01*
X34277000Y82546500D01*
X34277000Y75817925D01*
X34000286Y76095122D01*
X33603668Y76259813D01*
X33174216Y76260187D01*
X32777311Y76096189D01*
X32473378Y75792786D01*
X32308687Y75396168D01*
X32308313Y74966716D01*
X32472311Y74569811D01*
X32775714Y74265878D01*
X33172332Y74101187D01*
X33210110Y74101154D01*
X33261000Y74050264D01*
X33261000Y66928368D01*
X33238286Y66951122D01*
X32841668Y67115813D01*
X32412216Y67116187D01*
X32015311Y66952189D01*
X31711378Y66648786D01*
X31546687Y66252168D01*
X31546313Y65822716D01*
X31710311Y65425811D01*
X32013714Y65121878D01*
X32245000Y65025839D01*
X32245000Y57641418D01*
X32144689Y57884189D01*
X31841286Y58188122D01*
X31444668Y58352813D01*
X31015216Y58353187D01*
X30618311Y58189189D01*
X30591575Y58162500D01*
X29959000Y58162500D01*
X29618795Y58094830D01*
X29330382Y57902118D01*
X25647382Y54219118D01*
X25454671Y53930706D01*
X25387000Y53590500D01*
X25387000Y51418736D01*
X22986764Y49018500D01*
X17132000Y49018500D01*
X16791794Y48950829D01*
X16503382Y48758118D01*
X15995382Y48250118D01*
X15802671Y47961706D01*
X15735000Y47621500D01*
X15735000Y43938500D01*
X15802671Y43598294D01*
X15900554Y43451802D01*
X15995382Y43309882D01*
X16376382Y42928882D01*
X16664794Y42736171D01*
X16915900Y42686223D01*
X17005778Y42551711D01*
X17401199Y42287500D01*
X17005778Y42023289D01*
X16697441Y41561829D01*
X16589167Y41017500D01*
X16697441Y40473171D01*
X17005778Y40011711D01*
X17400830Y39747746D01*
X17384738Y39743025D01*
X16950809Y39393486D01*
X16683673Y38904496D01*
X16666990Y38824560D01*
X16789148Y38604500D01*
X18275000Y38604500D01*
X18275000Y38624500D01*
X18529000Y38624500D01*
X18529000Y38604500D01*
X20014852Y38604500D01*
X20137010Y38824560D01*
X20120327Y38904496D01*
X19853191Y39393486D01*
X19419262Y39743025D01*
X19403170Y39747746D01*
X19798222Y40011711D01*
X20106559Y40473171D01*
X20214833Y41017500D01*
X20106559Y41561829D01*
X19798222Y42023289D01*
X19402801Y42287500D01*
X19798222Y42551711D01*
X20106559Y43013171D01*
X20214833Y43557500D01*
X20106559Y44101829D01*
X19798222Y44563289D01*
X19626540Y44678003D01*
X19780317Y44706938D01*
X19996441Y44846010D01*
X20141431Y45058210D01*
X20171865Y45208500D01*
X22351764Y45208500D01*
X22091382Y44948118D01*
X21898671Y44659706D01*
X21831000Y44319500D01*
X21831000Y36702146D01*
X21681286Y36852122D01*
X21284668Y37016813D01*
X20855216Y37017187D01*
X20458311Y36853189D01*
X20154378Y36549786D01*
X20112907Y36449914D01*
X20106559Y36481829D01*
X19798222Y36943289D01*
X19403170Y37207254D01*
X19419262Y37211975D01*
X19853191Y37561514D01*
X20120327Y38050504D01*
X20137010Y38130440D01*
X20014852Y38350500D01*
X18529000Y38350500D01*
X18529000Y38330500D01*
X18275000Y38330500D01*
X18275000Y38350500D01*
X16789148Y38350500D01*
X16666990Y38130440D01*
X16683673Y38050504D01*
X16950809Y37561514D01*
X17384738Y37211975D01*
X17400830Y37207254D01*
X17005778Y36943289D01*
X16697441Y36481829D01*
X16589167Y35937500D01*
X16697441Y35393171D01*
X17005778Y34931711D01*
X17401199Y34667500D01*
X17005778Y34403289D01*
X16697441Y33941829D01*
X16589167Y33397500D01*
X16697441Y32853171D01*
X17005778Y32391711D01*
X17401199Y32127500D01*
X17005778Y31863289D01*
X16697441Y31401829D01*
X16589167Y30857500D01*
X16697441Y30313171D01*
X17005778Y29851711D01*
X17401199Y29587500D01*
X17005778Y29323289D01*
X16697441Y28861829D01*
X16589167Y28317500D01*
X16697441Y27773171D01*
X17005778Y27311711D01*
X17401199Y27047500D01*
X17005778Y26783289D01*
X16697441Y26321829D01*
X16589167Y25777500D01*
X16697441Y25233171D01*
X17005778Y24771711D01*
X17401199Y24507500D01*
X17005778Y24243289D01*
X16697441Y23781829D01*
X16589167Y23237500D01*
X16697441Y22693171D01*
X17005778Y22231711D01*
X17401199Y21967500D01*
X17005778Y21703289D01*
X16697441Y21241829D01*
X16677111Y21139625D01*
X15481000Y22335736D01*
X15481000Y49514060D01*
X15608000Y49514060D01*
X15843317Y49558338D01*
X16059441Y49697410D01*
X16204431Y49909610D01*
X16255440Y50161500D01*
X16255440Y52193500D01*
X16211162Y52428817D01*
X16072090Y52644941D01*
X15942900Y52733213D01*
X15990834Y52781063D01*
X16242713Y53387655D01*
X16243286Y54044463D01*
X15992466Y54651495D01*
X15528437Y55116334D01*
X14921845Y55368213D01*
X14265037Y55368786D01*
X13658005Y55117966D01*
X13193166Y54653937D01*
X12941287Y54047345D01*
X12940714Y53390537D01*
X13191534Y52783505D01*
X13241872Y52733079D01*
X13124559Y52657590D01*
X12979569Y52445390D01*
X12928560Y52193500D01*
X12928560Y50161500D01*
X12972838Y49926183D01*
X13111910Y49710059D01*
X13324110Y49565069D01*
X13576000Y49514060D01*
X13703000Y49514060D01*
X13703000Y32086751D01*
X13587421Y32202532D01*
X13004159Y32444724D01*
X12372612Y32445275D01*
X11788928Y32204102D01*
X11341968Y31757921D01*
X11099776Y31174659D01*
X11099225Y30543112D01*
X11340398Y29959428D01*
X11786579Y29512468D01*
X12369841Y29270276D01*
X13001388Y29269725D01*
X13585072Y29510898D01*
X13703000Y29628620D01*
X13703000Y26973108D01*
X13625553Y26895661D01*
X13532712Y27157588D01*
X12940199Y27376175D01*
X12309139Y27351378D01*
X11841288Y27157588D01*
X11748446Y26895659D01*
X12687000Y25957105D01*
X12701143Y25971247D01*
X12880748Y25791642D01*
X12866605Y25777500D01*
X12880748Y25763357D01*
X12701143Y25583752D01*
X12687000Y25597895D01*
X11748446Y24659341D01*
X11841288Y24397412D01*
X12433801Y24178825D01*
X13064861Y24203622D01*
X13532712Y24397412D01*
X13625553Y24659339D01*
X13703000Y24581892D01*
X13703000Y21967500D01*
X13713122Y21916611D01*
X13587421Y22042532D01*
X13004159Y22284724D01*
X12372612Y22285275D01*
X11788928Y22044102D01*
X11341968Y21597921D01*
X11099776Y21014659D01*
X11099225Y20383112D01*
X11340398Y19799428D01*
X11786579Y19352468D01*
X12369841Y19110276D01*
X13001388Y19109725D01*
X13585072Y19350898D01*
X14032032Y19797079D01*
X14274224Y20380341D01*
X14274775Y21011888D01*
X14263790Y21038474D01*
X16681347Y18620917D01*
X16589167Y18157500D01*
X16697441Y17613171D01*
X17005778Y17151711D01*
X17401199Y16887500D01*
X17005778Y16623289D01*
X16697441Y16161829D01*
X16589167Y15617500D01*
X16697441Y15073171D01*
X17005778Y14611711D01*
X17401199Y14347500D01*
X17005778Y14083289D01*
X16697441Y13621829D01*
X16589167Y13077500D01*
X16697441Y12533171D01*
X17005778Y12071711D01*
X17401199Y11807500D01*
X17005778Y11543289D01*
X16697441Y11081829D01*
X16589167Y10537500D01*
X16697441Y9993171D01*
X17005778Y9531711D01*
X17467238Y9223374D01*
X18011567Y9115100D01*
X18792433Y9115100D01*
X19336762Y9223374D01*
X19798222Y9531711D01*
X20106559Y9993171D01*
X20214833Y10537500D01*
X20106559Y11081829D01*
X19798222Y11543289D01*
X19402801Y11807500D01*
X19798222Y12071711D01*
X20106559Y12533171D01*
X20214833Y13077500D01*
X20106559Y13621829D01*
X19798222Y14083289D01*
X19402801Y14347500D01*
X19798222Y14611711D01*
X20106559Y15073171D01*
X20214833Y15617500D01*
X20106559Y16161829D01*
X19798222Y16623289D01*
X19402801Y16887500D01*
X19798222Y17151711D01*
X20106559Y17613171D01*
X20214833Y18157500D01*
X20106559Y18701829D01*
X19798222Y19163289D01*
X19402801Y19427500D01*
X19798222Y19691711D01*
X19913560Y19864327D01*
X19913560Y19681500D01*
X19957838Y19446183D01*
X20096910Y19230059D01*
X20309110Y19085069D01*
X20561000Y19034060D01*
X22593000Y19034060D01*
X22828317Y19078338D01*
X23044441Y19217410D01*
X23189431Y19429610D01*
X23240440Y19681500D01*
X23240440Y21713500D01*
X23196162Y21948817D01*
X23057090Y22164941D01*
X22908163Y22266698D01*
X23134670Y22605690D01*
X23260345Y23237500D01*
X23134670Y23869310D01*
X22776778Y24404933D01*
X22241155Y24762825D01*
X21609345Y24888500D01*
X21544655Y24888500D01*
X20912845Y24762825D01*
X20377222Y24404933D01*
X20033718Y23890843D01*
X19798222Y24243289D01*
X19402801Y24507500D01*
X19798222Y24771711D01*
X20106559Y25233171D01*
X20214833Y25777500D01*
X20106559Y26321829D01*
X19798222Y26783289D01*
X19402801Y27047500D01*
X19798222Y27311711D01*
X20106559Y27773171D01*
X20214833Y28317500D01*
X20106559Y28861829D01*
X19798222Y29323289D01*
X19402801Y29587500D01*
X19798222Y29851711D01*
X20106559Y30313171D01*
X20180000Y30682383D01*
X20180000Y29460500D01*
X20247671Y29120294D01*
X20274929Y29079500D01*
X20440382Y28831882D01*
X23482000Y25790264D01*
X23482000Y11413736D01*
X19557764Y7489500D01*
X16243000Y7489500D01*
X15902794Y7421829D01*
X15614382Y7229118D01*
X12693382Y4308118D01*
X12500671Y4019706D01*
X12457436Y3802347D01*
X12340587Y3754066D01*
X12324800Y3738306D01*
X12191988Y3871117D01*
X11958599Y3967790D01*
X11067750Y3967790D01*
X10909000Y3809040D01*
X10909000Y2409500D01*
X10929000Y2409500D01*
X10929000Y2155500D01*
X10909000Y2155500D01*
X10909000Y2135500D01*
X10655000Y2135500D01*
X10655000Y2155500D01*
X9255460Y2155500D01*
X9096710Y1996750D01*
X9096710Y1105900D01*
X9193383Y872511D01*
X9240394Y825500D01*
X5081303Y825500D01*
X3408678Y1158206D01*
X2059618Y2059618D01*
X1158206Y3408677D01*
X893651Y4738685D01*
X2851630Y4738685D01*
X3175980Y3953700D01*
X3776041Y3352591D01*
X4560459Y3026872D01*
X5409815Y3026130D01*
X6194800Y3350480D01*
X6303609Y3459100D01*
X9096710Y3459100D01*
X9096710Y2568250D01*
X9255460Y2409500D01*
X10655000Y2409500D01*
X10655000Y3809040D01*
X10496250Y3967790D01*
X9605401Y3967790D01*
X9372012Y3871117D01*
X9193383Y3692489D01*
X9096710Y3459100D01*
X6303609Y3459100D01*
X6795909Y3950541D01*
X7121628Y4734959D01*
X7122370Y5584315D01*
X6798020Y6369300D01*
X6197959Y6970409D01*
X5413541Y7296128D01*
X4564185Y7296870D01*
X3779200Y6972520D01*
X3178091Y6372459D01*
X2852372Y5588041D01*
X2851630Y4738685D01*
X893651Y4738685D01*
X825500Y5081303D01*
X825500Y15331750D01*
X4452320Y15331750D01*
X4452320Y14241511D01*
X4548993Y14008122D01*
X4727621Y13829493D01*
X4961010Y13732820D01*
X6051250Y13732820D01*
X6210000Y13891570D01*
X6210000Y15490500D01*
X6464000Y15490500D01*
X6464000Y13891570D01*
X6622750Y13732820D01*
X7712990Y13732820D01*
X7946379Y13829493D01*
X8125007Y14008122D01*
X8221680Y14241511D01*
X8221680Y14499341D01*
X11748446Y14499341D01*
X11841288Y14237412D01*
X12433801Y14018825D01*
X13064861Y14043622D01*
X13532712Y14237412D01*
X13625554Y14499341D01*
X12687000Y15437895D01*
X11748446Y14499341D01*
X8221680Y14499341D01*
X8221680Y15331750D01*
X8062930Y15490500D01*
X6464000Y15490500D01*
X6210000Y15490500D01*
X4611070Y15490500D01*
X4452320Y15331750D01*
X825500Y15331750D01*
X825500Y16993489D01*
X4452320Y16993489D01*
X4452320Y15903250D01*
X4611070Y15744500D01*
X6210000Y15744500D01*
X6210000Y17343430D01*
X6464000Y17343430D01*
X6464000Y15744500D01*
X8062930Y15744500D01*
X8189129Y15870699D01*
X11088325Y15870699D01*
X11113122Y15239639D01*
X11306912Y14771788D01*
X11568841Y14678946D01*
X12507395Y15617500D01*
X12866605Y15617500D01*
X13805159Y14678946D01*
X14067088Y14771788D01*
X14285675Y15364301D01*
X14260878Y15995361D01*
X14067088Y16463212D01*
X13805159Y16556054D01*
X12866605Y15617500D01*
X12507395Y15617500D01*
X11568841Y16556054D01*
X11306912Y16463212D01*
X11088325Y15870699D01*
X8189129Y15870699D01*
X8221680Y15903250D01*
X8221680Y16735659D01*
X11748446Y16735659D01*
X12687000Y15797105D01*
X13625554Y16735659D01*
X13532712Y16997588D01*
X12940199Y17216175D01*
X12309139Y17191378D01*
X11841288Y16997588D01*
X11748446Y16735659D01*
X8221680Y16735659D01*
X8221680Y16993489D01*
X8125007Y17226878D01*
X7946379Y17405507D01*
X7712990Y17502180D01*
X6622750Y17502180D01*
X6464000Y17343430D01*
X6210000Y17343430D01*
X6051250Y17502180D01*
X4961010Y17502180D01*
X4727621Y17405507D01*
X4548993Y17226878D01*
X4452320Y16993489D01*
X825500Y16993489D01*
X825500Y20324259D01*
X4451994Y20324259D01*
X4738314Y19631309D01*
X5268021Y19100678D01*
X5960469Y18813148D01*
X6710241Y18812494D01*
X7403191Y19098814D01*
X7933822Y19628521D01*
X8221352Y20320969D01*
X8222006Y21070741D01*
X7935686Y21763691D01*
X7405979Y22294322D01*
X6713531Y22581852D01*
X5963759Y22582506D01*
X5270809Y22296186D01*
X4740178Y21766479D01*
X4452648Y21074031D01*
X4451994Y20324259D01*
X825500Y20324259D01*
X825500Y25491750D01*
X4452320Y25491750D01*
X4452320Y24401511D01*
X4548993Y24168122D01*
X4727621Y23989493D01*
X4961010Y23892820D01*
X6051250Y23892820D01*
X6210000Y24051570D01*
X6210000Y25650500D01*
X6464000Y25650500D01*
X6464000Y24051570D01*
X6622750Y23892820D01*
X7712990Y23892820D01*
X7946379Y23989493D01*
X8125007Y24168122D01*
X8221680Y24401511D01*
X8221680Y25491750D01*
X8062930Y25650500D01*
X6464000Y25650500D01*
X6210000Y25650500D01*
X4611070Y25650500D01*
X4452320Y25491750D01*
X825500Y25491750D01*
X825500Y27153489D01*
X4452320Y27153489D01*
X4452320Y26063250D01*
X4611070Y25904500D01*
X6210000Y25904500D01*
X6210000Y27503430D01*
X6464000Y27503430D01*
X6464000Y25904500D01*
X8062930Y25904500D01*
X8189129Y26030699D01*
X11088325Y26030699D01*
X11113122Y25399639D01*
X11306912Y24931788D01*
X11568841Y24838946D01*
X12507395Y25777500D01*
X11568841Y26716054D01*
X11306912Y26623212D01*
X11088325Y26030699D01*
X8189129Y26030699D01*
X8221680Y26063250D01*
X8221680Y27153489D01*
X8125007Y27386878D01*
X7946379Y27565507D01*
X7712990Y27662180D01*
X6622750Y27662180D01*
X6464000Y27503430D01*
X6210000Y27503430D01*
X6051250Y27662180D01*
X4961010Y27662180D01*
X4727621Y27565507D01*
X4548993Y27386878D01*
X4452320Y27153489D01*
X825500Y27153489D01*
X825500Y30484259D01*
X4451994Y30484259D01*
X4738314Y29791309D01*
X5268021Y29260678D01*
X5960469Y28973148D01*
X6710241Y28972494D01*
X7403191Y29258814D01*
X7933822Y29788521D01*
X8221352Y30480969D01*
X8222006Y31230741D01*
X7935686Y31923691D01*
X7405979Y32454322D01*
X6713531Y32741852D01*
X5963759Y32742506D01*
X5270809Y32456186D01*
X4740178Y31926479D01*
X4452648Y31234031D01*
X4451994Y30484259D01*
X825500Y30484259D01*
X825500Y35651750D01*
X4452320Y35651750D01*
X4452320Y34561511D01*
X4548993Y34328122D01*
X4727621Y34149493D01*
X4961010Y34052820D01*
X6051250Y34052820D01*
X6210000Y34211570D01*
X6210000Y35810500D01*
X6464000Y35810500D01*
X6464000Y34211570D01*
X6622750Y34052820D01*
X7712990Y34052820D01*
X7946379Y34149493D01*
X8125007Y34328122D01*
X8221680Y34561511D01*
X8221680Y35651750D01*
X8062930Y35810500D01*
X6464000Y35810500D01*
X6210000Y35810500D01*
X4611070Y35810500D01*
X4452320Y35651750D01*
X825500Y35651750D01*
X825500Y37313489D01*
X4452320Y37313489D01*
X4452320Y36223250D01*
X4611070Y36064500D01*
X6210000Y36064500D01*
X6210000Y37663430D01*
X6464000Y37663430D01*
X6464000Y36064500D01*
X8062930Y36064500D01*
X8221680Y36223250D01*
X8221680Y37313489D01*
X8125007Y37546878D01*
X7946379Y37725507D01*
X7712990Y37822180D01*
X6622750Y37822180D01*
X6464000Y37663430D01*
X6210000Y37663430D01*
X6051250Y37822180D01*
X4961010Y37822180D01*
X4727621Y37725507D01*
X4548993Y37546878D01*
X4452320Y37313489D01*
X825500Y37313489D01*
X825500Y40644259D01*
X4451994Y40644259D01*
X4738314Y39951309D01*
X5268021Y39420678D01*
X5960469Y39133148D01*
X6710241Y39132494D01*
X7403191Y39418814D01*
X7933822Y39948521D01*
X8221352Y40640969D01*
X8222006Y41390741D01*
X7935686Y42083691D01*
X7405979Y42614322D01*
X6713531Y42901852D01*
X5963759Y42902506D01*
X5270809Y42616186D01*
X4740178Y42086479D01*
X4452648Y41394031D01*
X4451994Y40644259D01*
X825500Y40644259D01*
X825500Y45811750D01*
X4452320Y45811750D01*
X4452320Y44721511D01*
X4548993Y44488122D01*
X4727621Y44309493D01*
X4961010Y44212820D01*
X6051250Y44212820D01*
X6210000Y44371570D01*
X6210000Y45970500D01*
X6464000Y45970500D01*
X6464000Y44371570D01*
X6622750Y44212820D01*
X7712990Y44212820D01*
X7946379Y44309493D01*
X8125007Y44488122D01*
X8221680Y44721511D01*
X8221680Y45811750D01*
X8062930Y45970500D01*
X6464000Y45970500D01*
X6210000Y45970500D01*
X4611070Y45970500D01*
X4452320Y45811750D01*
X825500Y45811750D01*
X825500Y47473489D01*
X4452320Y47473489D01*
X4452320Y46383250D01*
X4611070Y46224500D01*
X6210000Y46224500D01*
X6210000Y47823430D01*
X6464000Y47823430D01*
X6464000Y46224500D01*
X8062930Y46224500D01*
X8221680Y46383250D01*
X8221680Y47473489D01*
X8125007Y47706878D01*
X7946379Y47885507D01*
X7712990Y47982180D01*
X6622750Y47982180D01*
X6464000Y47823430D01*
X6210000Y47823430D01*
X6051250Y47982180D01*
X4961010Y47982180D01*
X4727621Y47885507D01*
X4548993Y47706878D01*
X4452320Y47473489D01*
X825500Y47473489D01*
X825500Y50804259D01*
X4451994Y50804259D01*
X4738314Y50111309D01*
X5268021Y49580678D01*
X5960469Y49293148D01*
X6710241Y49292494D01*
X7403191Y49578814D01*
X7933822Y50108521D01*
X8221352Y50800969D01*
X8222006Y51550741D01*
X7935686Y52243691D01*
X7405979Y52774322D01*
X6713531Y53061852D01*
X5963759Y53062506D01*
X5270809Y52776186D01*
X4740178Y52246479D01*
X4452648Y51554031D01*
X4451994Y50804259D01*
X825500Y50804259D01*
X825500Y55971750D01*
X4452320Y55971750D01*
X4452320Y54881511D01*
X4548993Y54648122D01*
X4727621Y54469493D01*
X4961010Y54372820D01*
X6051250Y54372820D01*
X6210000Y54531570D01*
X6210000Y56130500D01*
X6464000Y56130500D01*
X6464000Y54531570D01*
X6622750Y54372820D01*
X7712990Y54372820D01*
X7946379Y54469493D01*
X8125007Y54648122D01*
X8221680Y54881511D01*
X8221680Y55971750D01*
X8062930Y56130500D01*
X6464000Y56130500D01*
X6210000Y56130500D01*
X4611070Y56130500D01*
X4452320Y55971750D01*
X825500Y55971750D01*
X825500Y57633489D01*
X4452320Y57633489D01*
X4452320Y56543250D01*
X4611070Y56384500D01*
X6210000Y56384500D01*
X6210000Y57983430D01*
X6464000Y57983430D01*
X6464000Y56384500D01*
X8062930Y56384500D01*
X8221680Y56543250D01*
X8221680Y57633489D01*
X8125007Y57866878D01*
X7946379Y58045507D01*
X7712990Y58142180D01*
X6622750Y58142180D01*
X6464000Y57983430D01*
X6210000Y57983430D01*
X6051250Y58142180D01*
X4961010Y58142180D01*
X4727621Y58045507D01*
X4548993Y57866878D01*
X4452320Y57633489D01*
X825500Y57633489D01*
X825500Y59105537D01*
X12305714Y59105537D01*
X12556534Y58498505D01*
X13020563Y58033666D01*
X13627155Y57781787D01*
X14283963Y57781214D01*
X14890995Y58032034D01*
X15355834Y58496063D01*
X15607713Y59102655D01*
X15608286Y59759463D01*
X15357466Y60366495D01*
X14893437Y60831334D01*
X14286845Y61083213D01*
X13630037Y61083786D01*
X13023005Y60832966D01*
X12558166Y60368937D01*
X12306287Y59762345D01*
X12305714Y59105537D01*
X825500Y59105537D01*
X825500Y60964259D01*
X4451994Y60964259D01*
X4738314Y60271309D01*
X5268021Y59740678D01*
X5960469Y59453148D01*
X6710241Y59452494D01*
X7403191Y59738814D01*
X7933822Y60268521D01*
X8221352Y60960969D01*
X8222006Y61710741D01*
X8060136Y62102500D01*
X20939560Y62102500D01*
X20939560Y59302500D01*
X20983838Y59067183D01*
X21122910Y58851059D01*
X21335110Y58706069D01*
X21587000Y58655060D01*
X23187000Y58655060D01*
X23422317Y58699338D01*
X23638441Y58838410D01*
X23783431Y59050610D01*
X23834440Y59302500D01*
X23834440Y60575500D01*
X26952000Y60575500D01*
X26952000Y59975500D01*
X27109834Y59436017D01*
X27462104Y58998000D01*
X27955181Y58728133D01*
X28037961Y58710596D01*
X28260000Y58832585D01*
X28260000Y60575500D01*
X28514000Y60575500D01*
X28514000Y58832585D01*
X28736039Y58710596D01*
X28818819Y58728133D01*
X29311896Y58998000D01*
X29664166Y59436017D01*
X29822000Y59975500D01*
X29822000Y60575500D01*
X28514000Y60575500D01*
X28260000Y60575500D01*
X26952000Y60575500D01*
X23834440Y60575500D01*
X23834440Y61429500D01*
X26952000Y61429500D01*
X26952000Y60829500D01*
X28260000Y60829500D01*
X28260000Y62572415D01*
X28514000Y62572415D01*
X28514000Y60829500D01*
X29822000Y60829500D01*
X29822000Y61429500D01*
X29664166Y61968983D01*
X29311896Y62407000D01*
X28818819Y62676867D01*
X28736039Y62694404D01*
X28514000Y62572415D01*
X28260000Y62572415D01*
X28037961Y62694404D01*
X27955181Y62676867D01*
X27462104Y62407000D01*
X27109834Y61968983D01*
X26952000Y61429500D01*
X23834440Y61429500D01*
X23834440Y62102500D01*
X23790162Y62337817D01*
X23657000Y62544757D01*
X23657000Y63272448D01*
X31095026Y70710474D01*
X31370327Y71122492D01*
X31467001Y71608500D01*
X31467000Y71608505D01*
X31467000Y71772178D01*
X31542032Y71847079D01*
X31784224Y72430341D01*
X31784775Y73061888D01*
X31543602Y73645572D01*
X31097421Y74092532D01*
X30514159Y74334724D01*
X29882612Y74335275D01*
X29298928Y74094102D01*
X28851968Y73647921D01*
X28609776Y73064659D01*
X28609225Y72433112D01*
X28789430Y71996982D01*
X21488974Y64696526D01*
X21213673Y64284508D01*
X21116999Y63798500D01*
X21117000Y63798495D01*
X21117000Y62539428D01*
X20990569Y62354390D01*
X20939560Y62102500D01*
X8060136Y62102500D01*
X7935686Y62403691D01*
X7405979Y62934322D01*
X6713531Y63221852D01*
X5963759Y63222506D01*
X5270809Y62936186D01*
X4740178Y62406479D01*
X4452648Y61714031D01*
X4451994Y60964259D01*
X825500Y60964259D01*
X825500Y65888393D01*
X12972498Y65888393D01*
X13073120Y65619878D01*
X13688642Y65390684D01*
X14345019Y65414486D01*
X14840880Y65619878D01*
X14941502Y65888393D01*
X13957000Y66872895D01*
X12972498Y65888393D01*
X825500Y65888393D01*
X825500Y67320858D01*
X12295184Y67320858D01*
X12318986Y66664481D01*
X12524378Y66168620D01*
X12792893Y66067998D01*
X13777395Y67052500D01*
X14136605Y67052500D01*
X15121107Y66067998D01*
X15389622Y66168620D01*
X15618816Y66784142D01*
X15595014Y67440519D01*
X15389622Y67936380D01*
X15121107Y68037002D01*
X14136605Y67052500D01*
X13777395Y67052500D01*
X12792893Y68037002D01*
X12524378Y67936380D01*
X12295184Y67320858D01*
X825500Y67320858D01*
X825500Y68216607D01*
X12972498Y68216607D01*
X13957000Y67232105D01*
X14941502Y68216607D01*
X14840880Y68485122D01*
X14225358Y68714316D01*
X13568981Y68690514D01*
X13073120Y68485122D01*
X12972498Y68216607D01*
X825500Y68216607D01*
X825500Y70576750D01*
X4452320Y70576750D01*
X4452320Y69486511D01*
X4548993Y69253122D01*
X4727621Y69074493D01*
X4961010Y68977820D01*
X6051250Y68977820D01*
X6210000Y69136570D01*
X6210000Y70735500D01*
X6464000Y70735500D01*
X6464000Y69136570D01*
X6622750Y68977820D01*
X7712990Y68977820D01*
X7946379Y69074493D01*
X8125007Y69253122D01*
X8221680Y69486511D01*
X8221680Y70576750D01*
X8062930Y70735500D01*
X6464000Y70735500D01*
X6210000Y70735500D01*
X4611070Y70735500D01*
X4452320Y70576750D01*
X825500Y70576750D01*
X825500Y72238489D01*
X4452320Y72238489D01*
X4452320Y71148250D01*
X4611070Y70989500D01*
X6210000Y70989500D01*
X6210000Y72588430D01*
X6464000Y72588430D01*
X6464000Y70989500D01*
X8062930Y70989500D01*
X8221680Y71148250D01*
X8221680Y72238489D01*
X8125007Y72471878D01*
X7946379Y72650507D01*
X7712990Y72747180D01*
X6622750Y72747180D01*
X6464000Y72588430D01*
X6210000Y72588430D01*
X6051250Y72747180D01*
X4961010Y72747180D01*
X4727621Y72650507D01*
X4548993Y72471878D01*
X4452320Y72238489D01*
X825500Y72238489D01*
X825500Y75569259D01*
X4451994Y75569259D01*
X4738314Y74876309D01*
X5268021Y74345678D01*
X5960469Y74058148D01*
X6710241Y74057494D01*
X7403191Y74343814D01*
X7933822Y74873521D01*
X8221352Y75565969D01*
X8222006Y76315741D01*
X8007357Y76835235D01*
X13448670Y76835235D01*
X13738078Y76134814D01*
X14247422Y75624580D01*
X13739961Y75118005D01*
X13449332Y74418090D01*
X13448670Y73660235D01*
X13738078Y72959814D01*
X14273495Y72423461D01*
X14973410Y72132832D01*
X15731265Y72132170D01*
X16431686Y72421578D01*
X16968039Y72956995D01*
X17258668Y73656910D01*
X17259330Y74414765D01*
X16969922Y75115186D01*
X16460578Y75625420D01*
X16968039Y76131995D01*
X17258668Y76831910D01*
X17258670Y76835235D01*
X22846670Y76835235D01*
X23136078Y76134814D01*
X23645422Y75624580D01*
X23137961Y75118005D01*
X22847332Y74418090D01*
X22846670Y73660235D01*
X23136078Y72959814D01*
X23671495Y72423461D01*
X24371410Y72132832D01*
X25129265Y72132170D01*
X25829686Y72421578D01*
X26366039Y72956995D01*
X26656668Y73656910D01*
X26657330Y74414765D01*
X26367922Y75115186D01*
X25858578Y75625420D01*
X26366039Y76131995D01*
X26656668Y76831910D01*
X26657280Y77533112D01*
X27609225Y77533112D01*
X27850398Y76949428D01*
X28296579Y76502468D01*
X28879841Y76260276D01*
X29511388Y76259725D01*
X30095072Y76500898D01*
X30542032Y76947079D01*
X30784224Y77530341D01*
X30784775Y78161888D01*
X30543602Y78745572D01*
X30097421Y79192532D01*
X29514159Y79434724D01*
X28882612Y79435275D01*
X28298928Y79194102D01*
X27851968Y78747921D01*
X27609776Y78164659D01*
X27609225Y77533112D01*
X26657280Y77533112D01*
X26657330Y77589765D01*
X26367922Y78290186D01*
X25832505Y78826539D01*
X25132590Y79117168D01*
X24374735Y79117830D01*
X23674314Y78828422D01*
X23137961Y78293005D01*
X22847332Y77593090D01*
X22846670Y76835235D01*
X17258670Y76835235D01*
X17259330Y77589765D01*
X16969922Y78290186D01*
X16434505Y78826539D01*
X15734590Y79117168D01*
X14976735Y79117830D01*
X14276314Y78828422D01*
X13739961Y78293005D01*
X13449332Y77593090D01*
X13448670Y76835235D01*
X8007357Y76835235D01*
X7935686Y77008691D01*
X7405979Y77539322D01*
X6713531Y77826852D01*
X5963759Y77827506D01*
X5270809Y77541186D01*
X4740178Y77011479D01*
X4452648Y76319031D01*
X4451994Y75569259D01*
X825500Y75569259D01*
X825500Y83276750D01*
X4452320Y83276750D01*
X4452320Y82186511D01*
X4548993Y81953122D01*
X4727621Y81774493D01*
X4961010Y81677820D01*
X6051250Y81677820D01*
X6210000Y81836570D01*
X6210000Y83435500D01*
X6464000Y83435500D01*
X6464000Y81836570D01*
X6622750Y81677820D01*
X7712990Y81677820D01*
X7946379Y81774493D01*
X8125007Y81953122D01*
X8221680Y82186511D01*
X8221680Y83276750D01*
X8062930Y83435500D01*
X6464000Y83435500D01*
X6210000Y83435500D01*
X4611070Y83435500D01*
X4452320Y83276750D01*
X825500Y83276750D01*
X825500Y84938489D01*
X4452320Y84938489D01*
X4452320Y83848250D01*
X4611070Y83689500D01*
X6210000Y83689500D01*
X6210000Y85288430D01*
X6464000Y85288430D01*
X6464000Y83689500D01*
X8062930Y83689500D01*
X8221680Y83848250D01*
X8221680Y84938489D01*
X8125007Y85171878D01*
X7946379Y85350507D01*
X7712990Y85447180D01*
X6622750Y85447180D01*
X6464000Y85288430D01*
X6210000Y85288430D01*
X6051250Y85447180D01*
X4961010Y85447180D01*
X4727621Y85350507D01*
X4548993Y85171878D01*
X4452320Y84938489D01*
X825500Y84938489D01*
X825500Y88269259D01*
X4451994Y88269259D01*
X4738314Y87576309D01*
X5268021Y87045678D01*
X5960469Y86758148D01*
X6710241Y86757494D01*
X7403191Y87043814D01*
X7933822Y87573521D01*
X8221352Y88265969D01*
X8221758Y88731206D01*
X9648023Y90157472D01*
X9648026Y90157474D01*
X9923327Y90569492D01*
X10020000Y91055500D01*
X10020000Y93193393D01*
X10432498Y93193393D01*
X10533120Y92924878D01*
X11148642Y92695684D01*
X11805019Y92719486D01*
X12300880Y92924878D01*
X12401502Y93193393D01*
X11417000Y94177895D01*
X10432498Y93193393D01*
X10020000Y93193393D01*
X10020000Y93460271D01*
X10252893Y93372998D01*
X11237395Y94357500D01*
X11223253Y94371642D01*
X11402858Y94551247D01*
X11417000Y94537105D01*
X11431143Y94551247D01*
X11610748Y94371642D01*
X11596605Y94357500D01*
X12581107Y93372998D01*
X12849622Y93473620D01*
X13078816Y94089142D01*
X13055014Y94745519D01*
X12849622Y95241380D01*
X12698746Y95297919D01*
X12884441Y95417410D01*
X13029431Y95629610D01*
X13080440Y95881500D01*
X13080440Y97913500D01*
X13036162Y98148817D01*
X12897090Y98364941D01*
X12684890Y98509931D01*
X12433000Y98560940D01*
X10401000Y98560940D01*
X10165683Y98516662D01*
X9949559Y98377590D01*
X9806011Y98167500D01*
X9639005Y98167500D01*
X9639000Y98167501D01*
X9152992Y98070827D01*
X8740974Y97795526D01*
X7851974Y96906526D01*
X7576673Y96494508D01*
X7479999Y96008500D01*
X7480000Y96008495D01*
X7480000Y91581551D01*
X6425552Y90527103D01*
X5963759Y90527506D01*
X5270809Y90241186D01*
X4740178Y89711479D01*
X4452648Y89019031D01*
X4451994Y88269259D01*
X825500Y88269259D01*
X825500Y94738685D01*
X2851630Y94738685D01*
X3175980Y93953700D01*
X3776041Y93352591D01*
X4560459Y93026872D01*
X5409815Y93026130D01*
X6194800Y93350480D01*
X6795909Y93950541D01*
X7121628Y94734959D01*
X7122370Y95584315D01*
X6798020Y96369300D01*
X6197959Y96970409D01*
X5413541Y97296128D01*
X4564185Y97296870D01*
X3779200Y96972520D01*
X3178091Y96372459D01*
X2852372Y95588041D01*
X2851630Y94738685D01*
X825500Y94738685D01*
X825500Y94918697D01*
X1158206Y96591323D01*
X2059618Y97940382D01*
X3408678Y98841794D01*
X5081303Y99174500D01*
X14212428Y99174500D01*
X14149314Y99148422D01*
G36*
X29070000Y42886590D02*
X29025741Y42930849D01*
X28911501Y42816609D01*
X28810880Y43085122D01*
X28195358Y43314316D01*
X27538981Y43290514D01*
X27043120Y43085122D01*
X26942498Y42816607D01*
X27927000Y41832105D01*
X27941143Y41846247D01*
X28120748Y41666642D01*
X28106605Y41652500D01*
X28120748Y41638357D01*
X27941143Y41458752D01*
X27927000Y41472895D01*
X26942498Y40488393D01*
X27043120Y40219878D01*
X27658642Y39990684D01*
X28315019Y40014486D01*
X28810880Y40219878D01*
X28911501Y40488391D01*
X29025741Y40374151D01*
X29070000Y40418410D01*
X29070000Y35224410D01*
X28863437Y35431334D01*
X28256845Y35683213D01*
X27600037Y35683786D01*
X26993005Y35432966D01*
X26656821Y35097368D01*
X26323437Y35431334D01*
X25716845Y35683213D01*
X25060037Y35683786D01*
X24498000Y35451558D01*
X24498000Y40233968D01*
X25057155Y40001787D01*
X25713963Y40001214D01*
X26320995Y40252034D01*
X26744565Y40674866D01*
X26762893Y40667998D01*
X27747395Y41652500D01*
X26762893Y42637002D01*
X26744083Y42629953D01*
X26323437Y43051334D01*
X25716845Y43303213D01*
X25060037Y43303786D01*
X24498000Y43071558D01*
X24498000Y43443264D01*
X29070000Y48015264D01*
X29070000Y42886590D01*
X29070000Y42886590D01*
G37*
X29070000Y42886590D02*
X29025741Y42930849D01*
X28911501Y42816609D01*
X28810880Y43085122D01*
X28195358Y43314316D01*
X27538981Y43290514D01*
X27043120Y43085122D01*
X26942498Y42816607D01*
X27927000Y41832105D01*
X27941143Y41846247D01*
X28120748Y41666642D01*
X28106605Y41652500D01*
X28120748Y41638357D01*
X27941143Y41458752D01*
X27927000Y41472895D01*
X26942498Y40488393D01*
X27043120Y40219878D01*
X27658642Y39990684D01*
X28315019Y40014486D01*
X28810880Y40219878D01*
X28911501Y40488391D01*
X29025741Y40374151D01*
X29070000Y40418410D01*
X29070000Y35224410D01*
X28863437Y35431334D01*
X28256845Y35683213D01*
X27600037Y35683786D01*
X26993005Y35432966D01*
X26656821Y35097368D01*
X26323437Y35431334D01*
X25716845Y35683213D01*
X25060037Y35683786D01*
X24498000Y35451558D01*
X24498000Y40233968D01*
X25057155Y40001787D01*
X25713963Y40001214D01*
X26320995Y40252034D01*
X26744565Y40674866D01*
X26762893Y40667998D01*
X27747395Y41652500D01*
X26762893Y42637002D01*
X26744083Y42629953D01*
X26323437Y43051334D01*
X25716845Y43303213D01*
X25060037Y43303786D01*
X24498000Y43071558D01*
X24498000Y43443264D01*
X29070000Y48015264D01*
X29070000Y42886590D01*
G36*
X38422302Y81881827D02*
X38243673Y81703199D01*
X38147000Y81469810D01*
X38147000Y80879250D01*
X38305750Y80720500D01*
X39405000Y80720500D01*
X39405000Y80740500D01*
X39659000Y80740500D01*
X39659000Y80720500D01*
X39679000Y80720500D01*
X39679000Y80466500D01*
X39659000Y80466500D01*
X39659000Y80446500D01*
X39405000Y80446500D01*
X39405000Y80466500D01*
X38305750Y80466500D01*
X38147000Y80307750D01*
X38147000Y80133500D01*
X37579691Y80133500D01*
X37346302Y80036827D01*
X37167673Y79858199D01*
X37071000Y79624810D01*
X37071000Y78768250D01*
X37229750Y78609500D01*
X38595000Y78609500D01*
X38595000Y78629500D01*
X38849000Y78629500D01*
X38849000Y78609500D01*
X38869000Y78609500D01*
X38869000Y78355500D01*
X38849000Y78355500D01*
X38849000Y76990250D01*
X39007750Y76831500D01*
X39864309Y76831500D01*
X40097698Y76928173D01*
X40276327Y77106801D01*
X40283993Y77125308D01*
X40325563Y77083666D01*
X40932155Y76831787D01*
X41588963Y76831214D01*
X42195995Y77082034D01*
X42532179Y77417632D01*
X42865563Y77083666D01*
X43472155Y76831787D01*
X44128963Y76831214D01*
X44735995Y77082034D01*
X45072179Y77417632D01*
X45244387Y77245123D01*
X44068764Y76069500D01*
X38089863Y76069500D01*
X38064286Y76095122D01*
X37667668Y76259813D01*
X37238216Y76260187D01*
X36944000Y76138619D01*
X36944000Y78196750D01*
X37071000Y78196750D01*
X37071000Y77340190D01*
X37167673Y77106801D01*
X37346302Y76928173D01*
X37579691Y76831500D01*
X38436250Y76831500D01*
X38595000Y76990250D01*
X38595000Y78355500D01*
X37229750Y78355500D01*
X37071000Y78196750D01*
X36944000Y78196750D01*
X36944000Y80527264D01*
X38328236Y81911500D01*
X38493939Y81911500D01*
X38422302Y81881827D01*
X38422302Y81881827D01*
G37*
X38422302Y81881827D02*
X38243673Y81703199D01*
X38147000Y81469810D01*
X38147000Y80879250D01*
X38305750Y80720500D01*
X39405000Y80720500D01*
X39405000Y80740500D01*
X39659000Y80740500D01*
X39659000Y80720500D01*
X39679000Y80720500D01*
X39679000Y80466500D01*
X39659000Y80466500D01*
X39659000Y80446500D01*
X39405000Y80446500D01*
X39405000Y80466500D01*
X38305750Y80466500D01*
X38147000Y80307750D01*
X38147000Y80133500D01*
X37579691Y80133500D01*
X37346302Y80036827D01*
X37167673Y79858199D01*
X37071000Y79624810D01*
X37071000Y78768250D01*
X37229750Y78609500D01*
X38595000Y78609500D01*
X38595000Y78629500D01*
X38849000Y78629500D01*
X38849000Y78609500D01*
X38869000Y78609500D01*
X38869000Y78355500D01*
X38849000Y78355500D01*
X38849000Y76990250D01*
X39007750Y76831500D01*
X39864309Y76831500D01*
X40097698Y76928173D01*
X40276327Y77106801D01*
X40283993Y77125308D01*
X40325563Y77083666D01*
X40932155Y76831787D01*
X41588963Y76831214D01*
X42195995Y77082034D01*
X42532179Y77417632D01*
X42865563Y77083666D01*
X43472155Y76831787D01*
X44128963Y76831214D01*
X44735995Y77082034D01*
X45072179Y77417632D01*
X45244387Y77245123D01*
X44068764Y76069500D01*
X38089863Y76069500D01*
X38064286Y76095122D01*
X37667668Y76259813D01*
X37238216Y76260187D01*
X36944000Y76138619D01*
X36944000Y78196750D01*
X37071000Y78196750D01*
X37071000Y77340190D01*
X37167673Y77106801D01*
X37346302Y76928173D01*
X37579691Y76831500D01*
X38436250Y76831500D01*
X38595000Y76990250D01*
X38595000Y78355500D01*
X37229750Y78355500D01*
X37071000Y78196750D01*
X36944000Y78196750D01*
X36944000Y80527264D01*
X38328236Y81911500D01*
X38493939Y81911500D01*
X38422302Y81881827D01*
M02*
