G04 #@! TF.FileFunction,Soldermask,Top*
%FSLAX46Y46*%
G04 Gerber Fmt 4.6, Leading zero omitted, Abs format (unit mm)*
G04 Created by KiCad (PCBNEW 4.0.2-stable) date 31/10/2016 17:04:06*
%MOMM*%
G01*
G04 APERTURE LIST*
%ADD10C,0.150000*%
%ADD11C,3.508000*%
%ADD12C,2.413000*%
%ADD13R,2.540000X2.540000*%
%ADD14C,2.540000*%
%ADD15C,3.048000*%
%ADD16R,2.794000X2.082800*%
%ADD17O,2.794000X2.082800*%
%ADD18O,2.540000X2.540000*%
%ADD19R,2.608580X2.608580*%
%ADD20C,2.707640*%
%ADD21R,2.008000X2.008000*%
%ADD22C,2.008000*%
%ADD23R,3.007360X3.007360*%
%ADD24C,3.007360*%
%ADD25R,2.108000X3.308000*%
%ADD26O,2.108000X3.308000*%
G04 APERTURE END LIST*
D10*
D11*
X44987000Y95161500D03*
X4987000Y95161500D03*
X4987000Y5161500D03*
X44987000Y5161500D03*
D12*
X12687000Y30857500D03*
X12687000Y25777500D03*
X12687000Y20697500D03*
X12687000Y15617500D03*
D13*
X36817000Y51812500D03*
D14*
X36817000Y49272500D03*
D12*
X36817000Y38477500D03*
X36817000Y43557500D03*
D13*
X11417000Y96897500D03*
D14*
X11417000Y94357500D03*
D13*
X26022000Y81657500D03*
D14*
X26022000Y84197500D03*
D13*
X14592000Y51177500D03*
D14*
X14592000Y53717500D03*
D15*
X29832000Y1647500D03*
X39230000Y1647500D03*
X37452000Y22602500D03*
X46850000Y22602500D03*
X24752000Y77212500D03*
X15354000Y77212500D03*
X24752000Y74037500D03*
X15354000Y74037500D03*
D12*
X29197000Y77847500D03*
X30197000Y72747500D03*
D16*
X18402000Y46097500D03*
D17*
X18402000Y43557500D03*
X18402000Y41017500D03*
X18402000Y38477500D03*
X18402000Y35937500D03*
X18402000Y33397500D03*
X18402000Y30857500D03*
X18402000Y28317500D03*
X18402000Y25777500D03*
X18402000Y23237500D03*
X18402000Y20697500D03*
X18402000Y18157500D03*
X18402000Y15617500D03*
X18402000Y13077500D03*
X18402000Y10537500D03*
X33007000Y10537500D03*
X33007000Y13077500D03*
X33007000Y15617500D03*
X33007000Y18157500D03*
X33007000Y20697500D03*
X33007000Y23237500D03*
X33007000Y25777500D03*
X33007000Y28317500D03*
X33007000Y30857500D03*
X33007000Y33397500D03*
X33007000Y35937500D03*
X33007000Y38477500D03*
X33007000Y41017500D03*
X33007000Y43557500D03*
X33007000Y46097500D03*
D13*
X29832000Y15617500D03*
X29832000Y13458500D03*
D14*
X26657000Y93722500D03*
X26657000Y88642500D03*
D13*
X21577000Y20697500D03*
D18*
X21577000Y23237500D03*
D19*
X10782000Y2282500D03*
D20*
X13322000Y2282500D03*
X15862000Y2282500D03*
X18402000Y2282500D03*
X20942000Y2282500D03*
X23482000Y2282500D03*
D13*
X38722000Y87372500D03*
D14*
X41262000Y87372500D03*
X43802000Y87372500D03*
X46342000Y87372500D03*
D21*
X39532000Y89483500D03*
D22*
X41532000Y89483500D03*
X43532000Y89483500D03*
X45532000Y89483500D03*
D13*
X38722000Y78482500D03*
D14*
X41262000Y78482500D03*
X43802000Y78482500D03*
X46342000Y78482500D03*
D21*
X39532000Y80593500D03*
D22*
X41532000Y80593500D03*
X43532000Y80593500D03*
X45532000Y80593500D03*
D13*
X38722000Y69592500D03*
D14*
X41262000Y69592500D03*
X43802000Y69592500D03*
X46342000Y69592500D03*
D21*
X39532000Y71703500D03*
D22*
X41532000Y71703500D03*
X43532000Y71703500D03*
X45532000Y71703500D03*
D14*
X13957000Y59432500D03*
X13957000Y67052500D03*
X25387000Y41652500D03*
X25387000Y34032500D03*
X27927000Y34032500D03*
X27927000Y41652500D03*
X32372000Y4822500D03*
X39992000Y4822500D03*
X39992000Y25777500D03*
X47612000Y25777500D03*
X39992000Y7362500D03*
X32372000Y7362500D03*
X47612000Y28317500D03*
X39992000Y28317500D03*
D16*
X20307000Y82292500D03*
D17*
X20307000Y84832500D03*
X20307000Y87372500D03*
X20307000Y89912500D03*
X12687000Y89912500D03*
X12687000Y87372500D03*
X12687000Y84832500D03*
X12687000Y82292500D03*
D13*
X46342000Y44827500D03*
D14*
X46342000Y49907500D03*
X46342000Y54987500D03*
X46342000Y60067500D03*
D21*
X44231000Y49447500D03*
D22*
X44231000Y51447500D03*
X44231000Y53447500D03*
X44231000Y55447500D03*
D23*
X6337000Y56257500D03*
D24*
X6337000Y61337500D03*
D23*
X6337000Y46097500D03*
D24*
X6337000Y51177500D03*
D23*
X6337000Y35937500D03*
D24*
X6337000Y41017500D03*
D23*
X6337000Y25777500D03*
D24*
X6337000Y30857500D03*
D23*
X6337000Y15617500D03*
D24*
X6337000Y20697500D03*
D23*
X6337000Y83562500D03*
D24*
X6337000Y88642500D03*
D23*
X6337000Y70862500D03*
D24*
X6337000Y75942500D03*
D23*
X43802000Y12442500D03*
D24*
X43802000Y17522500D03*
D23*
X43802000Y33397500D03*
D24*
X43802000Y38477500D03*
D25*
X22387000Y60702500D03*
D26*
X28387000Y60702500D03*
D15*
X15227000Y97532500D03*
X24625000Y97532500D03*
M02*
