M48
;DRILL file {KiCad 4.0.5} date 12/30/18 13:53:24
;FORMAT={-:-/ absolute / inch / decimal}
FMAT,2
INCH,TZ
T1C0.024
T2C0.025
T3C0.031
T4C0.032
T5C0.032
T6C0.039
T7C0.039
T8C0.040
T9C0.118
%
G90
G05
M72
T2
X0.8295Y1.4149
X1.1895Y2.1949
X1.2295Y2.2549
X1.2845Y2.5999
X1.3145Y2.9599
X1.4745Y2.9599
X1.4745Y2.5999
T3
X1.1495Y3.0649
X1.1889Y2.8641
X1.5564Y3.523
X1.5564Y3.173
X1.5564Y2.823
X1.6351Y3.523
X1.6351Y3.173
X1.6351Y2.823
X1.7139Y3.523
X1.7139Y3.173
X1.7139Y2.823
X1.7414Y2.183
X1.7414Y2.1042
X1.7414Y2.0255
X1.7414Y1.9468
X1.7926Y3.523
X1.7926Y3.173
X1.7926Y2.823
T4
X0.4495Y3.8149
X0.4495Y3.7149
X0.4995Y1.2149
X0.4995Y1.0149
X0.4995Y0.8149
X0.4995Y0.6149
X0.5495Y2.6399
X0.5495Y2.3399
X0.9995Y1.6399
X0.9995Y1.3399
X1.0245Y3.3149
X1.0245Y3.2149
X1.0495Y3.6899
X1.0495Y3.4899
X1.0995Y1.6399
X1.0995Y1.3399
X1.2745Y0.2899
X1.2745Y0.1899
X1.4495Y2.0399
X1.4495Y1.9399
X1.4495Y1.7149
X1.4495Y1.5149
X1.5745Y1.1149
X1.5745Y1.0149
X1.5745Y0.2899
X1.5745Y0.1899
X1.8745Y1.1149
X1.8745Y1.0149
T5
X0.4995Y3.5399
X0.4995Y3.4399
X0.4995Y3.3399
X0.4995Y3.2399
X0.5745Y2.1149
X0.5745Y2.0149
X0.7245Y1.8149
X0.7245Y1.7149
X0.7245Y1.6149
X0.7245Y1.5149
X0.7245Y1.4149
X0.7245Y1.3149
X0.7245Y1.2149
X0.7245Y1.1149
X0.7245Y1.0149
X0.7245Y0.9149
X0.7245Y0.8149
X0.7245Y0.7149
X0.7245Y0.6149
X0.7245Y0.5149
X0.7245Y0.4149
X0.7995Y3.5399
X0.7995Y3.4399
X0.7995Y3.3399
X0.7995Y3.2399
X1.2995Y1.8149
X1.2995Y1.7149
X1.2995Y1.6149
X1.2995Y1.5149
X1.2995Y1.4149
X1.2995Y1.3149
X1.2995Y1.2149
X1.2995Y1.1149
X1.2995Y1.0149
X1.2995Y0.9149
X1.2995Y0.8149
X1.2995Y0.7149
X1.2995Y0.6149
X1.2995Y0.5149
X1.2995Y0.4149
T6
X0.4245Y0.0899
X0.5245Y0.0899
X0.6245Y0.0899
X0.7245Y0.0899
X0.8245Y0.0899
X0.9245Y0.0899
T7
X0.2495Y3.4899
X0.2495Y3.2899
X0.2495Y2.9899
X0.2495Y2.7899
X0.2495Y2.4149
X0.2495Y2.2149
X0.2495Y2.0149
X0.2495Y1.8149
X0.2495Y1.6149
X0.2495Y1.4149
X0.2495Y1.2149
X0.2495Y1.0149
X0.2495Y0.8149
X0.2495Y0.6149
X0.5995Y3.8399
X0.6045Y3.0399
X0.6045Y2.9149
X0.9695Y3.8399
X0.9745Y3.0399
X0.9745Y2.9149
X1.1745Y0.6149
X1.1745Y0.5299
X1.1745Y0.0649
X1.4745Y0.8899
X1.5245Y3.4399
X1.5245Y3.0899
X1.5245Y2.7399
X1.5445Y0.0649
X1.6245Y3.4399
X1.6245Y3.0899
X1.6245Y2.7399
X1.7245Y3.4399
X1.7245Y3.0899
X1.7245Y2.7399
X1.7245Y1.5149
X1.7245Y1.3149
X1.7245Y0.6899
X1.7245Y0.4899
X1.8245Y3.4399
X1.8245Y3.0899
X1.8245Y2.7399
X1.8245Y2.3649
X1.8245Y2.1649
X1.8245Y1.9649
X1.8245Y1.7649
X1.8445Y0.8899
T8
X0.8495Y0.9149
X0.8495Y0.8149
T9
X0.1963Y3.7465
X0.1963Y0.2032
X1.7711Y3.7465
X1.7711Y0.2032
T1
X0.8814Y2.4115G85X0.8814Y2.3682
G05
X1.1176Y2.4115G85X1.1176Y2.3682
G05
T0
M30
